<?xml version="1.0" encoding="utf-8" standalone="no"?>
<!DOCTYPE svg PUBLIC "-//W3C//DTD SVG 1.1//EN"
  "http://www.w3.org/Graphics/SVG/1.1/DTD/svg11.dtd">
<svg height="360pt" version="1.1" viewBox="0 0 576 360" width="576pt" xmlns="http://www.w3.org/2000/svg" xmlns:xlink="http://www.w3.org/1999/xlink">
 <metadata>
  <rdf:RDF xmlns:cc="http://creativecommons.org/ns#" xmlns:dc="http://purl.org/dc/elements/1.1/" xmlns:rdf="http://www.w3.org/1999/02/22-rdf-syntax-ns#">
   <cc:Work>
    <dc:type rdf:resource="http://purl.org/dc/dcmitype/StillImage"/>
    <dc:date>2022-07-12T14:51:37.097371</dc:date>
    <dc:format>image/svg+xml</dc:format>
    <dc:creator>
     <cc:Agent>
      <dc:title>Matplotlib v3.4.3, https://matplotlib.org/</dc:title>
     </cc:Agent>
    </dc:creator>
   </cc:Work>
  </rdf:RDF>
 </metadata>
 <defs>
  <style type="text/css">*{stroke-linecap:butt;stroke-linejoin:round;}</style>
 </defs>
 <g id="figure_1">
  <g id="patch_1">
   <path d="M 0 360 
L 576 360 
L 576 0 
L 0 0 
z
" style="fill:#ffffff;"/>
  </g>
  <g id="axes_1">
   <g id="patch_2">
    <path d="M 72 315 
L 518.4 315 
L 518.4 43.2 
L 72 43.2 
z
" style="fill:#ffffff;"/>
   </g>
   <g id="matplotlib.axis_1">
    <g id="xtick_1">
     <g id="line2d_1">
      <path clip-path="url(#p60c7ee43cb)" d="M 72 315 
L 72 43.2 
" style="fill:none;stroke:#cccccc;stroke-linecap:round;"/>
     </g>
     <g id="text_1">
      <!-- 0 -->
      <g style="fill:#262626;" transform="translate(68.941484 332.373594)scale(0.11 -0.11)">
       <defs>
        <path d="M 266 2259 
Q 266 3072 433 3567 
Q 600 4063 929 4331 
Q 1259 4600 1759 4600 
Q 2128 4600 2406 4451 
Q 2684 4303 2865 4023 
Q 3047 3744 3150 3342 
Q 3253 2941 3253 2259 
Q 3253 1453 3087 958 
Q 2922 463 2592 192 
Q 2263 -78 1759 -78 
Q 1097 -78 719 397 
Q 266 969 266 2259 
z
M 844 2259 
Q 844 1131 1108 757 
Q 1372 384 1759 384 
Q 2147 384 2411 759 
Q 2675 1134 2675 2259 
Q 2675 3391 2411 3762 
Q 2147 4134 1753 4134 
Q 1366 4134 1134 3806 
Q 844 3388 844 2259 
z
" id="ArialMT-30" transform="scale(0.015625)"/>
       </defs>
       <use xlink:href="#ArialMT-30"/>
      </g>
     </g>
    </g>
    <g id="xtick_2">
     <g id="line2d_2">
      <path clip-path="url(#p60c7ee43cb)" d="M 146.4 315 
L 146.4 43.2 
" style="fill:none;stroke:#cccccc;stroke-linecap:round;"/>
     </g>
     <g id="text_2">
      <!-- 5 -->
      <g style="fill:#262626;" transform="translate(143.341484 332.373594)scale(0.11 -0.11)">
       <defs>
        <path d="M 266 1200 
L 856 1250 
Q 922 819 1161 601 
Q 1400 384 1738 384 
Q 2144 384 2425 690 
Q 2706 997 2706 1503 
Q 2706 1984 2436 2262 
Q 2166 2541 1728 2541 
Q 1456 2541 1237 2417 
Q 1019 2294 894 2097 
L 366 2166 
L 809 4519 
L 3088 4519 
L 3088 3981 
L 1259 3981 
L 1013 2750 
Q 1425 3038 1878 3038 
Q 2478 3038 2890 2622 
Q 3303 2206 3303 1553 
Q 3303 931 2941 478 
Q 2500 -78 1738 -78 
Q 1113 -78 717 272 
Q 322 622 266 1200 
z
" id="ArialMT-35" transform="scale(0.015625)"/>
       </defs>
       <use xlink:href="#ArialMT-35"/>
      </g>
     </g>
    </g>
    <g id="xtick_3">
     <g id="line2d_3">
      <path clip-path="url(#p60c7ee43cb)" d="M 220.8 315 
L 220.8 43.2 
" style="fill:none;stroke:#cccccc;stroke-linecap:round;"/>
     </g>
     <g id="text_3">
      <!-- 10 -->
      <g style="fill:#262626;" transform="translate(214.682969 332.373594)scale(0.11 -0.11)">
       <defs>
        <path d="M 2384 0 
L 1822 0 
L 1822 3584 
Q 1619 3391 1289 3197 
Q 959 3003 697 2906 
L 697 3450 
Q 1169 3672 1522 3987 
Q 1875 4303 2022 4600 
L 2384 4600 
L 2384 0 
z
" id="ArialMT-31" transform="scale(0.015625)"/>
       </defs>
       <use xlink:href="#ArialMT-31"/>
       <use x="55.615234" xlink:href="#ArialMT-30"/>
      </g>
     </g>
    </g>
    <g id="xtick_4">
     <g id="line2d_4">
      <path clip-path="url(#p60c7ee43cb)" d="M 295.2 315 
L 295.2 43.2 
" style="fill:none;stroke:#cccccc;stroke-linecap:round;"/>
     </g>
     <g id="text_4">
      <!-- 15 -->
      <g style="fill:#262626;" transform="translate(289.082969 332.373594)scale(0.11 -0.11)">
       <use xlink:href="#ArialMT-31"/>
       <use x="55.615234" xlink:href="#ArialMT-35"/>
      </g>
     </g>
    </g>
    <g id="xtick_5">
     <g id="line2d_5">
      <path clip-path="url(#p60c7ee43cb)" d="M 369.6 315 
L 369.6 43.2 
" style="fill:none;stroke:#cccccc;stroke-linecap:round;"/>
     </g>
     <g id="text_5">
      <!-- 20 -->
      <g style="fill:#262626;" transform="translate(363.482969 332.373594)scale(0.11 -0.11)">
       <defs>
        <path d="M 3222 541 
L 3222 0 
L 194 0 
Q 188 203 259 391 
Q 375 700 629 1000 
Q 884 1300 1366 1694 
Q 2113 2306 2375 2664 
Q 2638 3022 2638 3341 
Q 2638 3675 2398 3904 
Q 2159 4134 1775 4134 
Q 1369 4134 1125 3890 
Q 881 3647 878 3216 
L 300 3275 
Q 359 3922 746 4261 
Q 1134 4600 1788 4600 
Q 2447 4600 2831 4234 
Q 3216 3869 3216 3328 
Q 3216 3053 3103 2787 
Q 2991 2522 2730 2228 
Q 2469 1934 1863 1422 
Q 1356 997 1212 845 
Q 1069 694 975 541 
L 3222 541 
z
" id="ArialMT-32" transform="scale(0.015625)"/>
       </defs>
       <use xlink:href="#ArialMT-32"/>
       <use x="55.615234" xlink:href="#ArialMT-30"/>
      </g>
     </g>
    </g>
    <g id="xtick_6">
     <g id="line2d_6">
      <path clip-path="url(#p60c7ee43cb)" d="M 444 315 
L 444 43.2 
" style="fill:none;stroke:#cccccc;stroke-linecap:round;"/>
     </g>
     <g id="text_6">
      <!-- 25 -->
      <g style="fill:#262626;" transform="translate(437.882969 332.373594)scale(0.11 -0.11)">
       <use xlink:href="#ArialMT-32"/>
       <use x="55.615234" xlink:href="#ArialMT-35"/>
      </g>
     </g>
    </g>
    <g id="xtick_7">
     <g id="line2d_7">
      <path clip-path="url(#p60c7ee43cb)" d="M 518.4 315 
L 518.4 43.2 
" style="fill:none;stroke:#cccccc;stroke-linecap:round;"/>
     </g>
     <g id="text_7">
      <!-- 30 -->
      <g style="fill:#262626;" transform="translate(512.282969 332.373594)scale(0.11 -0.11)">
       <defs>
        <path d="M 269 1209 
L 831 1284 
Q 928 806 1161 595 
Q 1394 384 1728 384 
Q 2125 384 2398 659 
Q 2672 934 2672 1341 
Q 2672 1728 2419 1979 
Q 2166 2231 1775 2231 
Q 1616 2231 1378 2169 
L 1441 2663 
Q 1497 2656 1531 2656 
Q 1891 2656 2178 2843 
Q 2466 3031 2466 3422 
Q 2466 3731 2256 3934 
Q 2047 4138 1716 4138 
Q 1388 4138 1169 3931 
Q 950 3725 888 3313 
L 325 3413 
Q 428 3978 793 4289 
Q 1159 4600 1703 4600 
Q 2078 4600 2393 4439 
Q 2709 4278 2876 4000 
Q 3044 3722 3044 3409 
Q 3044 3113 2884 2869 
Q 2725 2625 2413 2481 
Q 2819 2388 3044 2092 
Q 3269 1797 3269 1353 
Q 3269 753 2831 336 
Q 2394 -81 1725 -81 
Q 1122 -81 723 278 
Q 325 638 269 1209 
z
" id="ArialMT-33" transform="scale(0.015625)"/>
       </defs>
       <use xlink:href="#ArialMT-33"/>
       <use x="55.615234" xlink:href="#ArialMT-30"/>
      </g>
     </g>
    </g>
    <g id="text_8">
     <!-- Predicted Aligned Error (Å) -->
     <g style="fill:#262626;" transform="translate(223.838437 348.990469)scale(0.12 -0.12)">
      <defs>
       <path d="M 494 0 
L 494 4581 
L 2222 4581 
Q 2678 4581 2919 4538 
Q 3256 4481 3484 4323 
Q 3713 4166 3852 3881 
Q 3991 3597 3991 3256 
Q 3991 2672 3619 2267 
Q 3247 1863 2275 1863 
L 1100 1863 
L 1100 0 
L 494 0 
z
M 1100 2403 
L 2284 2403 
Q 2872 2403 3119 2622 
Q 3366 2841 3366 3238 
Q 3366 3525 3220 3729 
Q 3075 3934 2838 4000 
Q 2684 4041 2272 4041 
L 1100 4041 
L 1100 2403 
z
" id="ArialMT-50" transform="scale(0.015625)"/>
       <path d="M 416 0 
L 416 3319 
L 922 3319 
L 922 2816 
Q 1116 3169 1280 3281 
Q 1444 3394 1641 3394 
Q 1925 3394 2219 3213 
L 2025 2691 
Q 1819 2813 1613 2813 
Q 1428 2813 1281 2702 
Q 1134 2591 1072 2394 
Q 978 2094 978 1738 
L 978 0 
L 416 0 
z
" id="ArialMT-72" transform="scale(0.015625)"/>
       <path d="M 2694 1069 
L 3275 997 
Q 3138 488 2766 206 
Q 2394 -75 1816 -75 
Q 1088 -75 661 373 
Q 234 822 234 1631 
Q 234 2469 665 2931 
Q 1097 3394 1784 3394 
Q 2450 3394 2872 2941 
Q 3294 2488 3294 1666 
Q 3294 1616 3291 1516 
L 816 1516 
Q 847 969 1125 678 
Q 1403 388 1819 388 
Q 2128 388 2347 550 
Q 2566 713 2694 1069 
z
M 847 1978 
L 2700 1978 
Q 2663 2397 2488 2606 
Q 2219 2931 1791 2931 
Q 1403 2931 1139 2672 
Q 875 2413 847 1978 
z
" id="ArialMT-65" transform="scale(0.015625)"/>
       <path d="M 2575 0 
L 2575 419 
Q 2259 -75 1647 -75 
Q 1250 -75 917 144 
Q 584 363 401 755 
Q 219 1147 219 1656 
Q 219 2153 384 2558 
Q 550 2963 881 3178 
Q 1213 3394 1622 3394 
Q 1922 3394 2156 3267 
Q 2391 3141 2538 2938 
L 2538 4581 
L 3097 4581 
L 3097 0 
L 2575 0 
z
M 797 1656 
Q 797 1019 1065 703 
Q 1334 388 1700 388 
Q 2069 388 2326 689 
Q 2584 991 2584 1609 
Q 2584 2291 2321 2609 
Q 2059 2928 1675 2928 
Q 1300 2928 1048 2622 
Q 797 2316 797 1656 
z
" id="ArialMT-64" transform="scale(0.015625)"/>
       <path d="M 425 3934 
L 425 4581 
L 988 4581 
L 988 3934 
L 425 3934 
z
M 425 0 
L 425 3319 
L 988 3319 
L 988 0 
L 425 0 
z
" id="ArialMT-69" transform="scale(0.015625)"/>
       <path d="M 2588 1216 
L 3141 1144 
Q 3050 572 2676 248 
Q 2303 -75 1759 -75 
Q 1078 -75 664 370 
Q 250 816 250 1647 
Q 250 2184 428 2587 
Q 606 2991 970 3192 
Q 1334 3394 1763 3394 
Q 2303 3394 2647 3120 
Q 2991 2847 3088 2344 
L 2541 2259 
Q 2463 2594 2264 2762 
Q 2066 2931 1784 2931 
Q 1359 2931 1093 2626 
Q 828 2322 828 1663 
Q 828 994 1084 691 
Q 1341 388 1753 388 
Q 2084 388 2306 591 
Q 2528 794 2588 1216 
z
" id="ArialMT-63" transform="scale(0.015625)"/>
       <path d="M 1650 503 
L 1731 6 
Q 1494 -44 1306 -44 
Q 1000 -44 831 53 
Q 663 150 594 308 
Q 525 466 525 972 
L 525 2881 
L 113 2881 
L 113 3319 
L 525 3319 
L 525 4141 
L 1084 4478 
L 1084 3319 
L 1650 3319 
L 1650 2881 
L 1084 2881 
L 1084 941 
Q 1084 700 1114 631 
Q 1144 563 1211 522 
Q 1278 481 1403 481 
Q 1497 481 1650 503 
z
" id="ArialMT-74" transform="scale(0.015625)"/>
       <path id="ArialMT-20" transform="scale(0.015625)"/>
       <path d="M -9 0 
L 1750 4581 
L 2403 4581 
L 4278 0 
L 3588 0 
L 3053 1388 
L 1138 1388 
L 634 0 
L -9 0 
z
M 1313 1881 
L 2866 1881 
L 2388 3150 
Q 2169 3728 2063 4100 
Q 1975 3659 1816 3225 
L 1313 1881 
z
" id="ArialMT-41" transform="scale(0.015625)"/>
       <path d="M 409 0 
L 409 4581 
L 972 4581 
L 972 0 
L 409 0 
z
" id="ArialMT-6c" transform="scale(0.015625)"/>
       <path d="M 319 -275 
L 866 -356 
Q 900 -609 1056 -725 
Q 1266 -881 1628 -881 
Q 2019 -881 2231 -725 
Q 2444 -569 2519 -288 
Q 2563 -116 2559 434 
Q 2191 0 1641 0 
Q 956 0 581 494 
Q 206 988 206 1678 
Q 206 2153 378 2554 
Q 550 2956 876 3175 
Q 1203 3394 1644 3394 
Q 2231 3394 2613 2919 
L 2613 3319 
L 3131 3319 
L 3131 450 
Q 3131 -325 2973 -648 
Q 2816 -972 2473 -1159 
Q 2131 -1347 1631 -1347 
Q 1038 -1347 672 -1080 
Q 306 -813 319 -275 
z
M 784 1719 
Q 784 1066 1043 766 
Q 1303 466 1694 466 
Q 2081 466 2343 764 
Q 2606 1063 2606 1700 
Q 2606 2309 2336 2618 
Q 2066 2928 1684 2928 
Q 1309 2928 1046 2623 
Q 784 2319 784 1719 
z
" id="ArialMT-67" transform="scale(0.015625)"/>
       <path d="M 422 0 
L 422 3319 
L 928 3319 
L 928 2847 
Q 1294 3394 1984 3394 
Q 2284 3394 2536 3286 
Q 2788 3178 2913 3003 
Q 3038 2828 3088 2588 
Q 3119 2431 3119 2041 
L 3119 0 
L 2556 0 
L 2556 2019 
Q 2556 2363 2490 2533 
Q 2425 2703 2258 2804 
Q 2091 2906 1866 2906 
Q 1506 2906 1245 2678 
Q 984 2450 984 1813 
L 984 0 
L 422 0 
z
" id="ArialMT-6e" transform="scale(0.015625)"/>
       <path d="M 506 0 
L 506 4581 
L 3819 4581 
L 3819 4041 
L 1113 4041 
L 1113 2638 
L 3647 2638 
L 3647 2100 
L 1113 2100 
L 1113 541 
L 3925 541 
L 3925 0 
L 506 0 
z
" id="ArialMT-45" transform="scale(0.015625)"/>
       <path d="M 213 1659 
Q 213 2581 725 3025 
Q 1153 3394 1769 3394 
Q 2453 3394 2887 2945 
Q 3322 2497 3322 1706 
Q 3322 1066 3130 698 
Q 2938 331 2570 128 
Q 2203 -75 1769 -75 
Q 1072 -75 642 372 
Q 213 819 213 1659 
z
M 791 1659 
Q 791 1022 1069 705 
Q 1347 388 1769 388 
Q 2188 388 2466 706 
Q 2744 1025 2744 1678 
Q 2744 2294 2464 2611 
Q 2184 2928 1769 2928 
Q 1347 2928 1069 2612 
Q 791 2297 791 1659 
z
" id="ArialMT-6f" transform="scale(0.015625)"/>
       <path d="M 1497 -1347 
Q 1031 -759 709 28 
Q 388 816 388 1659 
Q 388 2403 628 3084 
Q 909 3875 1497 4659 
L 1900 4659 
Q 1522 4009 1400 3731 
Q 1209 3300 1100 2831 
Q 966 2247 966 1656 
Q 966 153 1900 -1347 
L 1497 -1347 
z
" id="ArialMT-28" transform="scale(0.015625)"/>
       <path d="M -9 0 
L 1750 4581 
L 2403 4581 
L 4278 0 
L 3588 0 
L 3053 1388 
L 1138 1388 
L 634 0 
L -9 0 
z
M 1313 1881 
L 2866 1881 
L 2388 3150 
Q 2169 3728 2063 4100 
Q 1975 3659 1816 3225 
L 1313 1881 
z
M 1503 5003 
Q 1503 5231 1670 5397 
Q 1838 5563 2066 5563 
Q 2297 5563 2462 5395 
Q 2628 5228 2628 4991 
Q 2628 4750 2462 4584 
Q 2297 4419 2069 4419 
Q 1834 4419 1668 4586 
Q 1503 4753 1503 5003 
z
M 1741 5000 
Q 1741 4853 1839 4753 
Q 1938 4653 2072 4653 
Q 2206 4653 2304 4753 
Q 2403 4853 2403 4994 
Q 2403 5135 2306 5235 
Q 2209 5335 2072 5335 
Q 1938 5335 1839 5236 
Q 1741 5138 1741 5000 
z
" id="ArialMT-c5" transform="scale(0.015625)"/>
       <path d="M 791 -1347 
L 388 -1347 
Q 1322 153 1322 1656 
Q 1322 2244 1188 2822 
Q 1081 3291 891 3722 
Q 769 4003 388 4659 
L 791 4659 
Q 1378 3875 1659 3084 
Q 1900 2403 1900 1659 
Q 1900 816 1576 28 
Q 1253 -759 791 -1347 
z
" id="ArialMT-29" transform="scale(0.015625)"/>
      </defs>
      <use xlink:href="#ArialMT-50"/>
      <use x="66.699219" xlink:href="#ArialMT-72"/>
      <use x="100" xlink:href="#ArialMT-65"/>
      <use x="155.615234" xlink:href="#ArialMT-64"/>
      <use x="211.230469" xlink:href="#ArialMT-69"/>
      <use x="233.447266" xlink:href="#ArialMT-63"/>
      <use x="283.447266" xlink:href="#ArialMT-74"/>
      <use x="311.230469" xlink:href="#ArialMT-65"/>
      <use x="366.845703" xlink:href="#ArialMT-64"/>
      <use x="422.460938" xlink:href="#ArialMT-20"/>
      <use x="444.744141" xlink:href="#ArialMT-41"/>
      <use x="511.443359" xlink:href="#ArialMT-6c"/>
      <use x="533.660156" xlink:href="#ArialMT-69"/>
      <use x="555.876953" xlink:href="#ArialMT-67"/>
      <use x="611.492188" xlink:href="#ArialMT-6e"/>
      <use x="667.107422" xlink:href="#ArialMT-65"/>
      <use x="722.722656" xlink:href="#ArialMT-64"/>
      <use x="778.337891" xlink:href="#ArialMT-20"/>
      <use x="806.121094" xlink:href="#ArialMT-45"/>
      <use x="872.820312" xlink:href="#ArialMT-72"/>
      <use x="906.121094" xlink:href="#ArialMT-72"/>
      <use x="939.421875" xlink:href="#ArialMT-6f"/>
      <use x="995.037109" xlink:href="#ArialMT-72"/>
      <use x="1028.337891" xlink:href="#ArialMT-20"/>
      <use x="1056.121094" xlink:href="#ArialMT-28"/>
      <use x="1089.421875" xlink:href="#ArialMT-c5"/>
      <use x="1156.121094" xlink:href="#ArialMT-29"/>
     </g>
    </g>
   </g>
   <g id="matplotlib.axis_2">
    <g id="ytick_1">
     <g id="line2d_8">
      <path clip-path="url(#p60c7ee43cb)" d="M 72 302.057143 
L 518.4 302.057143 
" style="fill:none;stroke:#cccccc;stroke-linecap:round;"/>
     </g>
     <g id="text_9">
      <!-- 0.0 -->
      <g style="fill:#262626;" transform="translate(47.21 305.99394)scale(0.11 -0.11)">
       <defs>
        <path d="M 581 0 
L 581 641 
L 1222 641 
L 1222 0 
L 581 0 
z
" id="ArialMT-2e" transform="scale(0.015625)"/>
       </defs>
       <use xlink:href="#ArialMT-30"/>
       <use x="55.615234" xlink:href="#ArialMT-2e"/>
       <use x="83.398438" xlink:href="#ArialMT-30"/>
      </g>
     </g>
    </g>
    <g id="ytick_2">
     <g id="line2d_9">
      <path clip-path="url(#p60c7ee43cb)" d="M 72 250.285714 
L 518.4 250.285714 
" style="fill:none;stroke:#cccccc;stroke-linecap:round;"/>
     </g>
     <g id="text_10">
      <!-- 0.2 -->
      <g style="fill:#262626;" transform="translate(47.21 254.222511)scale(0.11 -0.11)">
       <use xlink:href="#ArialMT-30"/>
       <use x="55.615234" xlink:href="#ArialMT-2e"/>
       <use x="83.398438" xlink:href="#ArialMT-32"/>
      </g>
     </g>
    </g>
    <g id="ytick_3">
     <g id="line2d_10">
      <path clip-path="url(#p60c7ee43cb)" d="M 72 198.514286 
L 518.4 198.514286 
" style="fill:none;stroke:#cccccc;stroke-linecap:round;"/>
     </g>
     <g id="text_11">
      <!-- 0.4 -->
      <g style="fill:#262626;" transform="translate(47.21 202.451083)scale(0.11 -0.11)">
       <defs>
        <path d="M 2069 0 
L 2069 1097 
L 81 1097 
L 81 1613 
L 2172 4581 
L 2631 4581 
L 2631 1613 
L 3250 1613 
L 3250 1097 
L 2631 1097 
L 2631 0 
L 2069 0 
z
M 2069 1613 
L 2069 3678 
L 634 1613 
L 2069 1613 
z
" id="ArialMT-34" transform="scale(0.015625)"/>
       </defs>
       <use xlink:href="#ArialMT-30"/>
       <use x="55.615234" xlink:href="#ArialMT-2e"/>
       <use x="83.398438" xlink:href="#ArialMT-34"/>
      </g>
     </g>
    </g>
    <g id="ytick_4">
     <g id="line2d_11">
      <path clip-path="url(#p60c7ee43cb)" d="M 72 146.742857 
L 518.4 146.742857 
" style="fill:none;stroke:#cccccc;stroke-linecap:round;"/>
     </g>
     <g id="text_12">
      <!-- 0.6 -->
      <g style="fill:#262626;" transform="translate(47.21 150.679654)scale(0.11 -0.11)">
       <defs>
        <path d="M 3184 3459 
L 2625 3416 
Q 2550 3747 2413 3897 
Q 2184 4138 1850 4138 
Q 1581 4138 1378 3988 
Q 1113 3794 959 3422 
Q 806 3050 800 2363 
Q 1003 2672 1297 2822 
Q 1591 2972 1913 2972 
Q 2475 2972 2870 2558 
Q 3266 2144 3266 1488 
Q 3266 1056 3080 686 
Q 2894 316 2569 119 
Q 2244 -78 1831 -78 
Q 1128 -78 684 439 
Q 241 956 241 2144 
Q 241 3472 731 4075 
Q 1159 4600 1884 4600 
Q 2425 4600 2770 4297 
Q 3116 3994 3184 3459 
z
M 888 1484 
Q 888 1194 1011 928 
Q 1134 663 1356 523 
Q 1578 384 1822 384 
Q 2178 384 2434 671 
Q 2691 959 2691 1453 
Q 2691 1928 2437 2201 
Q 2184 2475 1800 2475 
Q 1419 2475 1153 2201 
Q 888 1928 888 1484 
z
" id="ArialMT-36" transform="scale(0.015625)"/>
       </defs>
       <use xlink:href="#ArialMT-30"/>
       <use x="55.615234" xlink:href="#ArialMT-2e"/>
       <use x="83.398438" xlink:href="#ArialMT-36"/>
      </g>
     </g>
    </g>
    <g id="ytick_5">
     <g id="line2d_12">
      <path clip-path="url(#p60c7ee43cb)" d="M 72 94.971429 
L 518.4 94.971429 
" style="fill:none;stroke:#cccccc;stroke-linecap:round;"/>
     </g>
     <g id="text_13">
      <!-- 0.8 -->
      <g style="fill:#262626;" transform="translate(47.21 98.908225)scale(0.11 -0.11)">
       <defs>
        <path d="M 1131 2484 
Q 781 2613 612 2850 
Q 444 3088 444 3419 
Q 444 3919 803 4259 
Q 1163 4600 1759 4600 
Q 2359 4600 2725 4251 
Q 3091 3903 3091 3403 
Q 3091 3084 2923 2848 
Q 2756 2613 2416 2484 
Q 2838 2347 3058 2040 
Q 3278 1734 3278 1309 
Q 3278 722 2862 322 
Q 2447 -78 1769 -78 
Q 1091 -78 675 323 
Q 259 725 259 1325 
Q 259 1772 486 2073 
Q 713 2375 1131 2484 
z
M 1019 3438 
Q 1019 3113 1228 2906 
Q 1438 2700 1772 2700 
Q 2097 2700 2305 2904 
Q 2513 3109 2513 3406 
Q 2513 3716 2298 3927 
Q 2084 4138 1766 4138 
Q 1444 4138 1231 3931 
Q 1019 3725 1019 3438 
z
M 838 1322 
Q 838 1081 952 856 
Q 1066 631 1291 507 
Q 1516 384 1775 384 
Q 2178 384 2440 643 
Q 2703 903 2703 1303 
Q 2703 1709 2433 1975 
Q 2163 2241 1756 2241 
Q 1359 2241 1098 1978 
Q 838 1716 838 1322 
z
" id="ArialMT-38" transform="scale(0.015625)"/>
       </defs>
       <use xlink:href="#ArialMT-30"/>
       <use x="55.615234" xlink:href="#ArialMT-2e"/>
       <use x="83.398438" xlink:href="#ArialMT-38"/>
      </g>
     </g>
    </g>
    <g id="ytick_6">
     <g id="line2d_13">
      <path clip-path="url(#p60c7ee43cb)" d="M 72 43.2 
L 518.4 43.2 
" style="fill:none;stroke:#cccccc;stroke-linecap:round;"/>
     </g>
     <g id="text_14">
      <!-- 1.0 -->
      <g style="fill:#262626;" transform="translate(47.21 47.136797)scale(0.11 -0.11)">
       <use xlink:href="#ArialMT-31"/>
       <use x="55.615234" xlink:href="#ArialMT-2e"/>
       <use x="83.398438" xlink:href="#ArialMT-30"/>
      </g>
     </g>
    </g>
    <g id="text_15">
     <!-- Proportion of cross-link violations -->
     <g style="fill:#262626;" transform="translate(40.825 267.132187)rotate(-90)scale(0.12 -0.12)">
      <defs>
       <path d="M 422 -1272 
L 422 3319 
L 934 3319 
L 934 2888 
Q 1116 3141 1344 3267 
Q 1572 3394 1897 3394 
Q 2322 3394 2647 3175 
Q 2972 2956 3137 2557 
Q 3303 2159 3303 1684 
Q 3303 1175 3120 767 
Q 2938 359 2589 142 
Q 2241 -75 1856 -75 
Q 1575 -75 1351 44 
Q 1128 163 984 344 
L 984 -1272 
L 422 -1272 
z
M 931 1641 
Q 931 1000 1190 694 
Q 1450 388 1819 388 
Q 2194 388 2461 705 
Q 2728 1022 2728 1688 
Q 2728 2322 2467 2637 
Q 2206 2953 1844 2953 
Q 1484 2953 1207 2617 
Q 931 2281 931 1641 
z
" id="ArialMT-70" transform="scale(0.015625)"/>
       <path d="M 556 0 
L 556 2881 
L 59 2881 
L 59 3319 
L 556 3319 
L 556 3672 
Q 556 4006 616 4169 
Q 697 4388 901 4523 
Q 1106 4659 1475 4659 
Q 1713 4659 2000 4603 
L 1916 4113 
Q 1741 4144 1584 4144 
Q 1328 4144 1222 4034 
Q 1116 3925 1116 3625 
L 1116 3319 
L 1763 3319 
L 1763 2881 
L 1116 2881 
L 1116 0 
L 556 0 
z
" id="ArialMT-66" transform="scale(0.015625)"/>
       <path d="M 197 991 
L 753 1078 
Q 800 744 1014 566 
Q 1228 388 1613 388 
Q 2000 388 2187 545 
Q 2375 703 2375 916 
Q 2375 1106 2209 1216 
Q 2094 1291 1634 1406 
Q 1016 1563 777 1677 
Q 538 1791 414 1992 
Q 291 2194 291 2438 
Q 291 2659 392 2848 
Q 494 3038 669 3163 
Q 800 3259 1026 3326 
Q 1253 3394 1513 3394 
Q 1903 3394 2198 3281 
Q 2494 3169 2634 2976 
Q 2775 2784 2828 2463 
L 2278 2388 
Q 2241 2644 2061 2787 
Q 1881 2931 1553 2931 
Q 1166 2931 1000 2803 
Q 834 2675 834 2503 
Q 834 2394 903 2306 
Q 972 2216 1119 2156 
Q 1203 2125 1616 2013 
Q 2213 1853 2448 1751 
Q 2684 1650 2818 1456 
Q 2953 1263 2953 975 
Q 2953 694 2789 445 
Q 2625 197 2315 61 
Q 2006 -75 1616 -75 
Q 969 -75 630 194 
Q 291 463 197 991 
z
" id="ArialMT-73" transform="scale(0.015625)"/>
       <path d="M 203 1375 
L 203 1941 
L 1931 1941 
L 1931 1375 
L 203 1375 
z
" id="ArialMT-2d" transform="scale(0.015625)"/>
       <path d="M 425 0 
L 425 4581 
L 988 4581 
L 988 1969 
L 2319 3319 
L 3047 3319 
L 1778 2088 
L 3175 0 
L 2481 0 
L 1384 1697 
L 988 1316 
L 988 0 
L 425 0 
z
" id="ArialMT-6b" transform="scale(0.015625)"/>
       <path d="M 1344 0 
L 81 3319 
L 675 3319 
L 1388 1331 
Q 1503 1009 1600 663 
Q 1675 925 1809 1294 
L 2547 3319 
L 3125 3319 
L 1869 0 
L 1344 0 
z
" id="ArialMT-76" transform="scale(0.015625)"/>
       <path d="M 2588 409 
Q 2275 144 1986 34 
Q 1697 -75 1366 -75 
Q 819 -75 525 192 
Q 231 459 231 875 
Q 231 1119 342 1320 
Q 453 1522 633 1644 
Q 813 1766 1038 1828 
Q 1203 1872 1538 1913 
Q 2219 1994 2541 2106 
Q 2544 2222 2544 2253 
Q 2544 2597 2384 2738 
Q 2169 2928 1744 2928 
Q 1347 2928 1158 2789 
Q 969 2650 878 2297 
L 328 2372 
Q 403 2725 575 2942 
Q 747 3159 1072 3276 
Q 1397 3394 1825 3394 
Q 2250 3394 2515 3294 
Q 2781 3194 2906 3042 
Q 3031 2891 3081 2659 
Q 3109 2516 3109 2141 
L 3109 1391 
Q 3109 606 3145 398 
Q 3181 191 3288 0 
L 2700 0 
Q 2613 175 2588 409 
z
M 2541 1666 
Q 2234 1541 1622 1453 
Q 1275 1403 1131 1340 
Q 988 1278 909 1158 
Q 831 1038 831 891 
Q 831 666 1001 516 
Q 1172 366 1500 366 
Q 1825 366 2078 508 
Q 2331 650 2450 897 
Q 2541 1088 2541 1459 
L 2541 1666 
z
" id="ArialMT-61" transform="scale(0.015625)"/>
      </defs>
      <use xlink:href="#ArialMT-50"/>
      <use x="66.699219" xlink:href="#ArialMT-72"/>
      <use x="100" xlink:href="#ArialMT-6f"/>
      <use x="155.615234" xlink:href="#ArialMT-70"/>
      <use x="211.230469" xlink:href="#ArialMT-6f"/>
      <use x="266.845703" xlink:href="#ArialMT-72"/>
      <use x="300.146484" xlink:href="#ArialMT-74"/>
      <use x="327.929688" xlink:href="#ArialMT-69"/>
      <use x="350.146484" xlink:href="#ArialMT-6f"/>
      <use x="405.761719" xlink:href="#ArialMT-6e"/>
      <use x="461.376953" xlink:href="#ArialMT-20"/>
      <use x="489.160156" xlink:href="#ArialMT-6f"/>
      <use x="544.775391" xlink:href="#ArialMT-66"/>
      <use x="572.558594" xlink:href="#ArialMT-20"/>
      <use x="600.341797" xlink:href="#ArialMT-63"/>
      <use x="650.341797" xlink:href="#ArialMT-72"/>
      <use x="683.642578" xlink:href="#ArialMT-6f"/>
      <use x="739.257812" xlink:href="#ArialMT-73"/>
      <use x="789.257812" xlink:href="#ArialMT-73"/>
      <use x="839.257812" xlink:href="#ArialMT-2d"/>
      <use x="872.558594" xlink:href="#ArialMT-6c"/>
      <use x="894.775391" xlink:href="#ArialMT-69"/>
      <use x="916.992188" xlink:href="#ArialMT-6e"/>
      <use x="972.607422" xlink:href="#ArialMT-6b"/>
      <use x="1022.607422" xlink:href="#ArialMT-20"/>
      <use x="1050.390625" xlink:href="#ArialMT-76"/>
      <use x="1100.390625" xlink:href="#ArialMT-69"/>
      <use x="1122.607422" xlink:href="#ArialMT-6f"/>
      <use x="1178.222656" xlink:href="#ArialMT-6c"/>
      <use x="1200.439453" xlink:href="#ArialMT-61"/>
      <use x="1256.054688" xlink:href="#ArialMT-74"/>
      <use x="1283.837891" xlink:href="#ArialMT-69"/>
      <use x="1306.054688" xlink:href="#ArialMT-6f"/>
      <use x="1361.669922" xlink:href="#ArialMT-6e"/>
      <use x="1417.285156" xlink:href="#ArialMT-73"/>
     </g>
    </g>
   </g>
   <g id="PathCollection_1">
    <defs>
     <path d="M 0 3 
C 0.795609 3 1.55874 2.683901 2.12132 2.12132 
C 2.683901 1.55874 3 0.795609 3 0 
C 3 -0.795609 2.683901 -1.55874 2.12132 -2.12132 
C 1.55874 -2.683901 0.795609 -3 0 -3 
C -0.795609 -3 -1.55874 -2.683901 -2.12132 -2.12132 
C -2.683901 -1.55874 -3 -0.795609 -3 0 
C -3 0.795609 -2.683901 1.55874 -2.12132 2.12132 
C -1.55874 2.683901 -0.795609 3 0 3 
z
" id="mb24edb69c1"/>
    </defs>
    <g clip-path="url(#p60c7ee43cb)">
     <use style="fill:#5c3666;" x="86.125474" xlink:href="#mb24edb69c1" y="302.057143"/>
     <use style="fill:#5c3666;" x="89.560527" xlink:href="#mb24edb69c1" y="302.057143"/>
     <use style="fill:#5c3666;" x="91.568366" xlink:href="#mb24edb69c1" y="302.057143"/>
     <use style="fill:#5c3666;" x="92.919426" xlink:href="#mb24edb69c1" y="302.057143"/>
     <use style="fill:#5c3666;" x="94.259897" xlink:href="#mb24edb69c1" y="302.057143"/>
     <use style="fill:#5c3666;" x="95.401252" xlink:href="#mb24edb69c1" y="302.057143"/>
     <use style="fill:#5c3666;" x="96.195861" xlink:href="#mb24edb69c1" y="302.057143"/>
     <use style="fill:#5c3666;" x="96.960199" xlink:href="#mb24edb69c1" y="302.057143"/>
     <use style="fill:#5c3666;" x="97.764833" xlink:href="#mb24edb69c1" y="302.057143"/>
     <use style="fill:#5c3666;" x="98.87566" xlink:href="#mb24edb69c1" y="302.057143"/>
     <use style="fill:#5c3666;" x="99.778039" xlink:href="#mb24edb69c1" y="302.057143"/>
     <use style="fill:#5c3666;" x="101.034287" xlink:href="#mb24edb69c1" y="302.057143"/>
     <use style="fill:#5c3666;" x="102.36565" xlink:href="#mb24edb69c1" y="302.057143"/>
     <use style="fill:#5c3666;" x="103.637722" xlink:href="#mb24edb69c1" y="302.057143"/>
     <use style="fill:#5c3666;" x="104.727389" xlink:href="#mb24edb69c1" y="302.057143"/>
     <use style="fill:#5c3666;" x="105.930648" xlink:href="#mb24edb69c1" y="302.057143"/>
     <use style="fill:#5c3666;" x="107.409663" xlink:href="#mb24edb69c1" y="302.057143"/>
     <use style="fill:#5c3666;" x="109.094393" xlink:href="#mb24edb69c1" y="302.057143"/>
     <use style="fill:#5c3666;" x="110.804077" xlink:href="#mb24edb69c1" y="302.057143"/>
     <use style="fill:#5c3666;" x="112.472142" xlink:href="#mb24edb69c1" y="302.057143"/>
     <use style="fill:#5c3666;" x="113.815613" xlink:href="#mb24edb69c1" y="302.057143"/>
     <use style="fill:#5c3666;" x="116.089532" xlink:href="#mb24edb69c1" y="302.057143"/>
     <use style="fill:#5c3666;" x="117.889944" xlink:href="#mb24edb69c1" y="302.057143"/>
     <use style="fill:#5c3666;" x="120.752649" xlink:href="#mb24edb69c1" y="302.057143"/>
     <use style="fill:#5c3666;" x="123.518076" xlink:href="#mb24edb69c1" y="291.702857"/>
     <use style="fill:#5c3666;" x="126.771289" xlink:href="#mb24edb69c1" y="302.057143"/>
     <use style="fill:#5c3666;" x="131.24772" xlink:href="#mb24edb69c1" y="291.702857"/>
     <use style="fill:#5c3666;" x="135.823216" xlink:href="#mb24edb69c1" y="270.994286"/>
     <use style="fill:#5c3666;" x="142.050099" xlink:href="#mb24edb69c1" y="302.057143"/>
     <use style="fill:#5c3666;" x="145.440051" xlink:href="#mb24edb69c1" y="281.348571"/>
     <use style="fill:#5c3666;" x="150.734184" xlink:href="#mb24edb69c1" y="270.994286"/>
     <use style="fill:#5c3666;" x="155.87911" xlink:href="#mb24edb69c1" y="260.64"/>
     <use style="fill:#5c3666;" x="163.064614" xlink:href="#mb24edb69c1" y="270.994286"/>
     <use style="fill:#5c3666;" x="168.614473" xlink:href="#mb24edb69c1" y="270.994286"/>
     <use style="fill:#5c3666;" x="174.568026" xlink:href="#mb24edb69c1" y="281.348571"/>
     <use style="fill:#5c3666;" x="184.33843" xlink:href="#mb24edb69c1" y="270.994286"/>
     <use style="fill:#5c3666;" x="195.459953" xlink:href="#mb24edb69c1" y="250.285714"/>
     <use style="fill:#5c3666;" x="207.334908" xlink:href="#mb24edb69c1" y="281.348571"/>
     <use style="fill:#5c3666;" x="218.956637" xlink:href="#mb24edb69c1" y="281.348571"/>
     <use style="fill:#5c3666;" x="237.71777" xlink:href="#mb24edb69c1" y="239.931429"/>
     <use style="fill:#5c3666;" x="258.509025" xlink:href="#mb24edb69c1" y="208.868571"/>
     <use style="fill:#5c3666;" x="282.206202" xlink:href="#mb24edb69c1" y="239.931429"/>
     <use style="fill:#5c3666;" x="307.818336" xlink:href="#mb24edb69c1" y="219.222857"/>
     <use style="fill:#5c3666;" x="330.541599" xlink:href="#mb24edb69c1" y="126.034286"/>
     <use style="fill:#5c3666;" x="354.675799" xlink:href="#mb24edb69c1" y="167.451429"/>
     <use style="fill:#5c3666;" x="387.795117" xlink:href="#mb24edb69c1" y="146.742857"/>
     <use style="fill:#5c3666;" x="427.76634" xlink:href="#mb24edb69c1" y="136.388571"/>
     <use style="fill:#5c3666;" x="471.930541" xlink:href="#mb24edb69c1" y="84.617143"/>
     <use style="fill:#5c3666;" x="499.596631" xlink:href="#mb24edb69c1" y="53.554286"/>
    </g>
   </g>
   <g id="LineCollection_1">
    <path clip-path="url(#p60c7ee43cb)" d="M 85.144513 302.057143 
L 87.106436 302.057143 
" style="fill:none;stroke:#5c3666;stroke-width:0.5;"/>
    <path clip-path="url(#p60c7ee43cb)" d="M 88.838311 302.057143 
L 90.282743 302.057143 
" style="fill:none;stroke:#5c3666;stroke-width:0.5;"/>
    <path clip-path="url(#p60c7ee43cb)" d="M 91.219262 302.057143 
L 91.91747 302.057143 
" style="fill:none;stroke:#5c3666;stroke-width:0.5;"/>
    <path clip-path="url(#p60c7ee43cb)" d="M 92.48445 302.057143 
L 93.354403 302.057143 
" style="fill:none;stroke:#5c3666;stroke-width:0.5;"/>
    <path clip-path="url(#p60c7ee43cb)" d="M 93.838669 302.057143 
L 94.681124 302.057143 
" style="fill:none;stroke:#5c3666;stroke-width:0.5;"/>
    <path clip-path="url(#p60c7ee43cb)" d="M 95.112152 302.057143 
L 95.690352 302.057143 
" style="fill:none;stroke:#5c3666;stroke-width:0.5;"/>
    <path clip-path="url(#p60c7ee43cb)" d="M 96.006055 302.057143 
L 96.385667 302.057143 
" style="fill:none;stroke:#5c3666;stroke-width:0.5;"/>
    <path clip-path="url(#p60c7ee43cb)" d="M 96.746836 302.057143 
L 97.173563 302.057143 
" style="fill:none;stroke:#5c3666;stroke-width:0.5;"/>
    <path clip-path="url(#p60c7ee43cb)" d="M 97.492525 302.057143 
L 98.037141 302.057143 
" style="fill:none;stroke:#5c3666;stroke-width:0.5;"/>
    <path clip-path="url(#p60c7ee43cb)" d="M 98.510909 302.057143 
L 99.24041 302.057143 
" style="fill:none;stroke:#5c3666;stroke-width:0.5;"/>
    <path clip-path="url(#p60c7ee43cb)" d="M 99.532424 302.057143 
L 100.023654 302.057143 
" style="fill:none;stroke:#5c3666;stroke-width:0.5;"/>
    <path clip-path="url(#p60c7ee43cb)" d="M 100.5837 302.057143 
L 101.484874 302.057143 
" style="fill:none;stroke:#5c3666;stroke-width:0.5;"/>
    <path clip-path="url(#p60c7ee43cb)" d="M 101.989675 302.057143 
L 102.741624 302.057143 
" style="fill:none;stroke:#5c3666;stroke-width:0.5;"/>
    <path clip-path="url(#p60c7ee43cb)" d="M 103.18588 302.057143 
L 104.089563 302.057143 
" style="fill:none;stroke:#5c3666;stroke-width:0.5;"/>
    <path clip-path="url(#p60c7ee43cb)" d="M 104.34399 302.057143 
L 105.110787 302.057143 
" style="fill:none;stroke:#5c3666;stroke-width:0.5;"/>
    <path clip-path="url(#p60c7ee43cb)" d="M 105.567606 302.057143 
L 106.29369 302.057143 
" style="fill:none;stroke:#5c3666;stroke-width:0.5;"/>
    <path clip-path="url(#p60c7ee43cb)" d="M 106.938444 302.057143 
L 107.880882 302.057143 
" style="fill:none;stroke:#5c3666;stroke-width:0.5;"/>
    <path clip-path="url(#p60c7ee43cb)" d="M 108.551404 302.057143 
L 109.637382 302.057143 
" style="fill:none;stroke:#5c3666;stroke-width:0.5;"/>
    <path clip-path="url(#p60c7ee43cb)" d="M 110.292064 302.057143 
L 111.31609 302.057143 
" style="fill:none;stroke:#5c3666;stroke-width:0.5;"/>
    <path clip-path="url(#p60c7ee43cb)" d="M 112.110784 302.057143 
L 112.8335 302.057143 
" style="fill:none;stroke:#5c3666;stroke-width:0.5;"/>
    <path clip-path="url(#p60c7ee43cb)" d="M 113.283647 302.057143 
L 114.347579 302.057143 
" style="fill:none;stroke:#5c3666;stroke-width:0.5;"/>
    <path clip-path="url(#p60c7ee43cb)" d="M 115.506395 302.057143 
L 116.67267 302.057143 
" style="fill:none;stroke:#5c3666;stroke-width:0.5;"/>
    <path clip-path="url(#p60c7ee43cb)" d="M 117.233105 302.057143 
L 118.546782 302.057143 
" style="fill:none;stroke:#5c3666;stroke-width:0.5;"/>
    <path clip-path="url(#p60c7ee43cb)" d="M 120.021565 302.057143 
L 121.483733 302.057143 
" style="fill:none;stroke:#5c3666;stroke-width:0.5;"/>
    <path clip-path="url(#p60c7ee43cb)" d="M 122.667711 291.702857 
L 124.368441 291.702857 
" style="fill:none;stroke:#5c3666;stroke-width:0.5;"/>
    <path clip-path="url(#p60c7ee43cb)" d="M 125.477827 302.057143 
L 128.06475 302.057143 
" style="fill:none;stroke:#5c3666;stroke-width:0.5;"/>
    <path clip-path="url(#p60c7ee43cb)" d="M 129.989161 291.702857 
L 132.506278 291.702857 
" style="fill:none;stroke:#5c3666;stroke-width:0.5;"/>
    <path clip-path="url(#p60c7ee43cb)" d="M 134.155018 270.994286 
L 137.491415 270.994286 
" style="fill:none;stroke:#5c3666;stroke-width:0.5;"/>
    <path clip-path="url(#p60c7ee43cb)" d="M 140.575991 302.057143 
L 143.524207 302.057143 
" style="fill:none;stroke:#5c3666;stroke-width:0.5;"/>
    <path clip-path="url(#p60c7ee43cb)" d="M 144.586418 281.348571 
L 146.293683 281.348571 
" style="fill:none;stroke:#5c3666;stroke-width:0.5;"/>
    <path clip-path="url(#p60c7ee43cb)" d="M 149.092866 270.994286 
L 152.375503 270.994286 
" style="fill:none;stroke:#5c3666;stroke-width:0.5;"/>
    <path clip-path="url(#p60c7ee43cb)" d="M 154.102727 260.64 
L 157.655493 260.64 
" style="fill:none;stroke:#5c3666;stroke-width:0.5;"/>
    <path clip-path="url(#p60c7ee43cb)" d="M 160.831914 270.994286 
L 165.297313 270.994286 
" style="fill:none;stroke:#5c3666;stroke-width:0.5;"/>
    <path clip-path="url(#p60c7ee43cb)" d="M 167.182933 270.994286 
L 170.046012 270.994286 
" style="fill:none;stroke:#5c3666;stroke-width:0.5;"/>
    <path clip-path="url(#p60c7ee43cb)" d="M 172.375298 281.348571 
L 176.760755 281.348571 
" style="fill:none;stroke:#5c3666;stroke-width:0.5;"/>
    <path clip-path="url(#p60c7ee43cb)" d="M 180.491004 270.994286 
L 188.185856 270.994286 
" style="fill:none;stroke:#5c3666;stroke-width:0.5;"/>
    <path clip-path="url(#p60c7ee43cb)" d="M 192.858117 250.285714 
L 198.06179 250.285714 
" style="fill:none;stroke:#5c3666;stroke-width:0.5;"/>
    <path clip-path="url(#p60c7ee43cb)" d="M 202.947661 281.348571 
L 211.722155 281.348571 
" style="fill:none;stroke:#5c3666;stroke-width:0.5;"/>
    <path clip-path="url(#p60c7ee43cb)" d="M 215.517245 281.348571 
L 222.39603 281.348571 
" style="fill:none;stroke:#5c3666;stroke-width:0.5;"/>
    <path clip-path="url(#p60c7ee43cb)" d="M 231.903241 239.931429 
L 243.5323 239.931429 
" style="fill:none;stroke:#5c3666;stroke-width:0.5;"/>
    <path clip-path="url(#p60c7ee43cb)" d="M 252.372063 208.868571 
L 264.645986 208.868571 
" style="fill:none;stroke:#5c3666;stroke-width:0.5;"/>
    <path clip-path="url(#p60c7ee43cb)" d="M 274.831957 239.931429 
L 289.580446 239.931429 
" style="fill:none;stroke:#5c3666;stroke-width:0.5;"/>
    <path clip-path="url(#p60c7ee43cb)" d="M 300.168624 219.222857 
L 315.468048 219.222857 
" style="fill:none;stroke:#5c3666;stroke-width:0.5;"/>
    <path clip-path="url(#p60c7ee43cb)" d="M 323.775732 126.034286 
L 337.307466 126.034286 
" style="fill:none;stroke:#5c3666;stroke-width:0.5;"/>
    <path clip-path="url(#p60c7ee43cb)" d="M 345.615442 167.451429 
L 363.736156 167.451429 
" style="fill:none;stroke:#5c3666;stroke-width:0.5;"/>
    <path clip-path="url(#p60c7ee43cb)" d="M 376.590104 146.742857 
L 399.000131 146.742857 
" style="fill:none;stroke:#5c3666;stroke-width:0.5;"/>
    <path clip-path="url(#p60c7ee43cb)" d="M 417.245237 136.388571 
L 438.287444 136.388571 
" style="fill:none;stroke:#5c3666;stroke-width:0.5;"/>
    <path clip-path="url(#p60c7ee43cb)" d="M 460.263066 84.617143 
L 483.598015 84.617143 
" style="fill:none;stroke:#5c3666;stroke-width:0.5;"/>
    <path clip-path="url(#p60c7ee43cb)" d="M 491.57395 53.554286 
L 507.619312 53.554286 
" style="fill:none;stroke:#5c3666;stroke-width:0.5;"/>
   </g>
   <g id="line2d_14">
    <defs>
     <path d="M 0 2 
L 0 -2 
" id="mafd624930d" style="stroke:#5c3666;stroke-width:0.5;"/>
    </defs>
    <g clip-path="url(#p60c7ee43cb)">
     <use style="fill:#5c3666;stroke:#5c3666;stroke-width:0.5;" x="85.144513" xlink:href="#mafd624930d" y="302.057143"/>
     <use style="fill:#5c3666;stroke:#5c3666;stroke-width:0.5;" x="88.838311" xlink:href="#mafd624930d" y="302.057143"/>
     <use style="fill:#5c3666;stroke:#5c3666;stroke-width:0.5;" x="91.219262" xlink:href="#mafd624930d" y="302.057143"/>
     <use style="fill:#5c3666;stroke:#5c3666;stroke-width:0.5;" x="92.48445" xlink:href="#mafd624930d" y="302.057143"/>
     <use style="fill:#5c3666;stroke:#5c3666;stroke-width:0.5;" x="93.838669" xlink:href="#mafd624930d" y="302.057143"/>
     <use style="fill:#5c3666;stroke:#5c3666;stroke-width:0.5;" x="95.112152" xlink:href="#mafd624930d" y="302.057143"/>
     <use style="fill:#5c3666;stroke:#5c3666;stroke-width:0.5;" x="96.006055" xlink:href="#mafd624930d" y="302.057143"/>
     <use style="fill:#5c3666;stroke:#5c3666;stroke-width:0.5;" x="96.746836" xlink:href="#mafd624930d" y="302.057143"/>
     <use style="fill:#5c3666;stroke:#5c3666;stroke-width:0.5;" x="97.492525" xlink:href="#mafd624930d" y="302.057143"/>
     <use style="fill:#5c3666;stroke:#5c3666;stroke-width:0.5;" x="98.510909" xlink:href="#mafd624930d" y="302.057143"/>
     <use style="fill:#5c3666;stroke:#5c3666;stroke-width:0.5;" x="99.532424" xlink:href="#mafd624930d" y="302.057143"/>
     <use style="fill:#5c3666;stroke:#5c3666;stroke-width:0.5;" x="100.5837" xlink:href="#mafd624930d" y="302.057143"/>
     <use style="fill:#5c3666;stroke:#5c3666;stroke-width:0.5;" x="101.989675" xlink:href="#mafd624930d" y="302.057143"/>
     <use style="fill:#5c3666;stroke:#5c3666;stroke-width:0.5;" x="103.18588" xlink:href="#mafd624930d" y="302.057143"/>
     <use style="fill:#5c3666;stroke:#5c3666;stroke-width:0.5;" x="104.34399" xlink:href="#mafd624930d" y="302.057143"/>
     <use style="fill:#5c3666;stroke:#5c3666;stroke-width:0.5;" x="105.567606" xlink:href="#mafd624930d" y="302.057143"/>
     <use style="fill:#5c3666;stroke:#5c3666;stroke-width:0.5;" x="106.938444" xlink:href="#mafd624930d" y="302.057143"/>
     <use style="fill:#5c3666;stroke:#5c3666;stroke-width:0.5;" x="108.551404" xlink:href="#mafd624930d" y="302.057143"/>
     <use style="fill:#5c3666;stroke:#5c3666;stroke-width:0.5;" x="110.292064" xlink:href="#mafd624930d" y="302.057143"/>
     <use style="fill:#5c3666;stroke:#5c3666;stroke-width:0.5;" x="112.110784" xlink:href="#mafd624930d" y="302.057143"/>
     <use style="fill:#5c3666;stroke:#5c3666;stroke-width:0.5;" x="113.283647" xlink:href="#mafd624930d" y="302.057143"/>
     <use style="fill:#5c3666;stroke:#5c3666;stroke-width:0.5;" x="115.506395" xlink:href="#mafd624930d" y="302.057143"/>
     <use style="fill:#5c3666;stroke:#5c3666;stroke-width:0.5;" x="117.233105" xlink:href="#mafd624930d" y="302.057143"/>
     <use style="fill:#5c3666;stroke:#5c3666;stroke-width:0.5;" x="120.021565" xlink:href="#mafd624930d" y="302.057143"/>
     <use style="fill:#5c3666;stroke:#5c3666;stroke-width:0.5;" x="122.667711" xlink:href="#mafd624930d" y="291.702857"/>
     <use style="fill:#5c3666;stroke:#5c3666;stroke-width:0.5;" x="125.477827" xlink:href="#mafd624930d" y="302.057143"/>
     <use style="fill:#5c3666;stroke:#5c3666;stroke-width:0.5;" x="129.989161" xlink:href="#mafd624930d" y="291.702857"/>
     <use style="fill:#5c3666;stroke:#5c3666;stroke-width:0.5;" x="134.155018" xlink:href="#mafd624930d" y="270.994286"/>
     <use style="fill:#5c3666;stroke:#5c3666;stroke-width:0.5;" x="140.575991" xlink:href="#mafd624930d" y="302.057143"/>
     <use style="fill:#5c3666;stroke:#5c3666;stroke-width:0.5;" x="144.586418" xlink:href="#mafd624930d" y="281.348571"/>
     <use style="fill:#5c3666;stroke:#5c3666;stroke-width:0.5;" x="149.092866" xlink:href="#mafd624930d" y="270.994286"/>
     <use style="fill:#5c3666;stroke:#5c3666;stroke-width:0.5;" x="154.102727" xlink:href="#mafd624930d" y="260.64"/>
     <use style="fill:#5c3666;stroke:#5c3666;stroke-width:0.5;" x="160.831914" xlink:href="#mafd624930d" y="270.994286"/>
     <use style="fill:#5c3666;stroke:#5c3666;stroke-width:0.5;" x="167.182933" xlink:href="#mafd624930d" y="270.994286"/>
     <use style="fill:#5c3666;stroke:#5c3666;stroke-width:0.5;" x="172.375298" xlink:href="#mafd624930d" y="281.348571"/>
     <use style="fill:#5c3666;stroke:#5c3666;stroke-width:0.5;" x="180.491004" xlink:href="#mafd624930d" y="270.994286"/>
     <use style="fill:#5c3666;stroke:#5c3666;stroke-width:0.5;" x="192.858117" xlink:href="#mafd624930d" y="250.285714"/>
     <use style="fill:#5c3666;stroke:#5c3666;stroke-width:0.5;" x="202.947661" xlink:href="#mafd624930d" y="281.348571"/>
     <use style="fill:#5c3666;stroke:#5c3666;stroke-width:0.5;" x="215.517245" xlink:href="#mafd624930d" y="281.348571"/>
     <use style="fill:#5c3666;stroke:#5c3666;stroke-width:0.5;" x="231.903241" xlink:href="#mafd624930d" y="239.931429"/>
     <use style="fill:#5c3666;stroke:#5c3666;stroke-width:0.5;" x="252.372063" xlink:href="#mafd624930d" y="208.868571"/>
     <use style="fill:#5c3666;stroke:#5c3666;stroke-width:0.5;" x="274.831957" xlink:href="#mafd624930d" y="239.931429"/>
     <use style="fill:#5c3666;stroke:#5c3666;stroke-width:0.5;" x="300.168624" xlink:href="#mafd624930d" y="219.222857"/>
     <use style="fill:#5c3666;stroke:#5c3666;stroke-width:0.5;" x="323.775732" xlink:href="#mafd624930d" y="126.034286"/>
     <use style="fill:#5c3666;stroke:#5c3666;stroke-width:0.5;" x="345.615442" xlink:href="#mafd624930d" y="167.451429"/>
     <use style="fill:#5c3666;stroke:#5c3666;stroke-width:0.5;" x="376.590104" xlink:href="#mafd624930d" y="146.742857"/>
     <use style="fill:#5c3666;stroke:#5c3666;stroke-width:0.5;" x="417.245237" xlink:href="#mafd624930d" y="136.388571"/>
     <use style="fill:#5c3666;stroke:#5c3666;stroke-width:0.5;" x="460.263066" xlink:href="#mafd624930d" y="84.617143"/>
     <use style="fill:#5c3666;stroke:#5c3666;stroke-width:0.5;" x="491.57395" xlink:href="#mafd624930d" y="53.554286"/>
    </g>
   </g>
   <g id="line2d_15">
    <g clip-path="url(#p60c7ee43cb)">
     <use style="fill:#5c3666;stroke:#5c3666;stroke-width:0.5;" x="87.106436" xlink:href="#mafd624930d" y="302.057143"/>
     <use style="fill:#5c3666;stroke:#5c3666;stroke-width:0.5;" x="90.282743" xlink:href="#mafd624930d" y="302.057143"/>
     <use style="fill:#5c3666;stroke:#5c3666;stroke-width:0.5;" x="91.91747" xlink:href="#mafd624930d" y="302.057143"/>
     <use style="fill:#5c3666;stroke:#5c3666;stroke-width:0.5;" x="93.354403" xlink:href="#mafd624930d" y="302.057143"/>
     <use style="fill:#5c3666;stroke:#5c3666;stroke-width:0.5;" x="94.681124" xlink:href="#mafd624930d" y="302.057143"/>
     <use style="fill:#5c3666;stroke:#5c3666;stroke-width:0.5;" x="95.690352" xlink:href="#mafd624930d" y="302.057143"/>
     <use style="fill:#5c3666;stroke:#5c3666;stroke-width:0.5;" x="96.385667" xlink:href="#mafd624930d" y="302.057143"/>
     <use style="fill:#5c3666;stroke:#5c3666;stroke-width:0.5;" x="97.173563" xlink:href="#mafd624930d" y="302.057143"/>
     <use style="fill:#5c3666;stroke:#5c3666;stroke-width:0.5;" x="98.037141" xlink:href="#mafd624930d" y="302.057143"/>
     <use style="fill:#5c3666;stroke:#5c3666;stroke-width:0.5;" x="99.24041" xlink:href="#mafd624930d" y="302.057143"/>
     <use style="fill:#5c3666;stroke:#5c3666;stroke-width:0.5;" x="100.023654" xlink:href="#mafd624930d" y="302.057143"/>
     <use style="fill:#5c3666;stroke:#5c3666;stroke-width:0.5;" x="101.484874" xlink:href="#mafd624930d" y="302.057143"/>
     <use style="fill:#5c3666;stroke:#5c3666;stroke-width:0.5;" x="102.741624" xlink:href="#mafd624930d" y="302.057143"/>
     <use style="fill:#5c3666;stroke:#5c3666;stroke-width:0.5;" x="104.089563" xlink:href="#mafd624930d" y="302.057143"/>
     <use style="fill:#5c3666;stroke:#5c3666;stroke-width:0.5;" x="105.110787" xlink:href="#mafd624930d" y="302.057143"/>
     <use style="fill:#5c3666;stroke:#5c3666;stroke-width:0.5;" x="106.29369" xlink:href="#mafd624930d" y="302.057143"/>
     <use style="fill:#5c3666;stroke:#5c3666;stroke-width:0.5;" x="107.880882" xlink:href="#mafd624930d" y="302.057143"/>
     <use style="fill:#5c3666;stroke:#5c3666;stroke-width:0.5;" x="109.637382" xlink:href="#mafd624930d" y="302.057143"/>
     <use style="fill:#5c3666;stroke:#5c3666;stroke-width:0.5;" x="111.31609" xlink:href="#mafd624930d" y="302.057143"/>
     <use style="fill:#5c3666;stroke:#5c3666;stroke-width:0.5;" x="112.8335" xlink:href="#mafd624930d" y="302.057143"/>
     <use style="fill:#5c3666;stroke:#5c3666;stroke-width:0.5;" x="114.347579" xlink:href="#mafd624930d" y="302.057143"/>
     <use style="fill:#5c3666;stroke:#5c3666;stroke-width:0.5;" x="116.67267" xlink:href="#mafd624930d" y="302.057143"/>
     <use style="fill:#5c3666;stroke:#5c3666;stroke-width:0.5;" x="118.546782" xlink:href="#mafd624930d" y="302.057143"/>
     <use style="fill:#5c3666;stroke:#5c3666;stroke-width:0.5;" x="121.483733" xlink:href="#mafd624930d" y="302.057143"/>
     <use style="fill:#5c3666;stroke:#5c3666;stroke-width:0.5;" x="124.368441" xlink:href="#mafd624930d" y="291.702857"/>
     <use style="fill:#5c3666;stroke:#5c3666;stroke-width:0.5;" x="128.06475" xlink:href="#mafd624930d" y="302.057143"/>
     <use style="fill:#5c3666;stroke:#5c3666;stroke-width:0.5;" x="132.506278" xlink:href="#mafd624930d" y="291.702857"/>
     <use style="fill:#5c3666;stroke:#5c3666;stroke-width:0.5;" x="137.491415" xlink:href="#mafd624930d" y="270.994286"/>
     <use style="fill:#5c3666;stroke:#5c3666;stroke-width:0.5;" x="143.524207" xlink:href="#mafd624930d" y="302.057143"/>
     <use style="fill:#5c3666;stroke:#5c3666;stroke-width:0.5;" x="146.293683" xlink:href="#mafd624930d" y="281.348571"/>
     <use style="fill:#5c3666;stroke:#5c3666;stroke-width:0.5;" x="152.375503" xlink:href="#mafd624930d" y="270.994286"/>
     <use style="fill:#5c3666;stroke:#5c3666;stroke-width:0.5;" x="157.655493" xlink:href="#mafd624930d" y="260.64"/>
     <use style="fill:#5c3666;stroke:#5c3666;stroke-width:0.5;" x="165.297313" xlink:href="#mafd624930d" y="270.994286"/>
     <use style="fill:#5c3666;stroke:#5c3666;stroke-width:0.5;" x="170.046012" xlink:href="#mafd624930d" y="270.994286"/>
     <use style="fill:#5c3666;stroke:#5c3666;stroke-width:0.5;" x="176.760755" xlink:href="#mafd624930d" y="281.348571"/>
     <use style="fill:#5c3666;stroke:#5c3666;stroke-width:0.5;" x="188.185856" xlink:href="#mafd624930d" y="270.994286"/>
     <use style="fill:#5c3666;stroke:#5c3666;stroke-width:0.5;" x="198.06179" xlink:href="#mafd624930d" y="250.285714"/>
     <use style="fill:#5c3666;stroke:#5c3666;stroke-width:0.5;" x="211.722155" xlink:href="#mafd624930d" y="281.348571"/>
     <use style="fill:#5c3666;stroke:#5c3666;stroke-width:0.5;" x="222.39603" xlink:href="#mafd624930d" y="281.348571"/>
     <use style="fill:#5c3666;stroke:#5c3666;stroke-width:0.5;" x="243.5323" xlink:href="#mafd624930d" y="239.931429"/>
     <use style="fill:#5c3666;stroke:#5c3666;stroke-width:0.5;" x="264.645986" xlink:href="#mafd624930d" y="208.868571"/>
     <use style="fill:#5c3666;stroke:#5c3666;stroke-width:0.5;" x="289.580446" xlink:href="#mafd624930d" y="239.931429"/>
     <use style="fill:#5c3666;stroke:#5c3666;stroke-width:0.5;" x="315.468048" xlink:href="#mafd624930d" y="219.222857"/>
     <use style="fill:#5c3666;stroke:#5c3666;stroke-width:0.5;" x="337.307466" xlink:href="#mafd624930d" y="126.034286"/>
     <use style="fill:#5c3666;stroke:#5c3666;stroke-width:0.5;" x="363.736156" xlink:href="#mafd624930d" y="167.451429"/>
     <use style="fill:#5c3666;stroke:#5c3666;stroke-width:0.5;" x="399.000131" xlink:href="#mafd624930d" y="146.742857"/>
     <use style="fill:#5c3666;stroke:#5c3666;stroke-width:0.5;" x="438.287444" xlink:href="#mafd624930d" y="136.388571"/>
     <use style="fill:#5c3666;stroke:#5c3666;stroke-width:0.5;" x="483.598015" xlink:href="#mafd624930d" y="84.617143"/>
     <use style="fill:#5c3666;stroke:#5c3666;stroke-width:0.5;" x="507.619312" xlink:href="#mafd624930d" y="53.554286"/>
    </g>
   </g>
   <g id="line2d_16"/>
   <g id="patch_3">
    <path d="M 72 315 
L 72 43.2 
" style="fill:none;stroke:#cccccc;stroke-linecap:square;stroke-linejoin:miter;stroke-width:1.25;"/>
   </g>
   <g id="patch_4">
    <path d="M 518.4 315 
L 518.4 43.2 
" style="fill:none;stroke:#cccccc;stroke-linecap:square;stroke-linejoin:miter;stroke-width:1.25;"/>
   </g>
   <g id="patch_5">
    <path d="M 72 315 
L 518.4 315 
" style="fill:none;stroke:#cccccc;stroke-linecap:square;stroke-linejoin:miter;stroke-width:1.25;"/>
   </g>
   <g id="patch_6">
    <path d="M 72 43.2 
L 518.4 43.2 
" style="fill:none;stroke:#cccccc;stroke-linecap:square;stroke-linejoin:miter;stroke-width:1.25;"/>
   </g>
   <g id="text_16">
    <!-- Cross-link Violations vs PAE -->
    <g style="fill:#262626;" transform="translate(220.0575 37.2)scale(0.12 -0.12)">
     <defs>
      <path d="M 3763 1606 
L 4369 1453 
Q 4178 706 3683 314 
Q 3188 -78 2472 -78 
Q 1731 -78 1267 223 
Q 803 525 561 1097 
Q 319 1669 319 2325 
Q 319 3041 592 3573 
Q 866 4106 1370 4382 
Q 1875 4659 2481 4659 
Q 3169 4659 3637 4309 
Q 4106 3959 4291 3325 
L 3694 3184 
Q 3534 3684 3231 3912 
Q 2928 4141 2469 4141 
Q 1941 4141 1586 3887 
Q 1231 3634 1087 3207 
Q 944 2781 944 2328 
Q 944 1744 1114 1308 
Q 1284 872 1643 656 
Q 2003 441 2422 441 
Q 2931 441 3284 734 
Q 3638 1028 3763 1606 
z
" id="ArialMT-43" transform="scale(0.015625)"/>
      <path d="M 1803 0 
L 28 4581 
L 684 4581 
L 1875 1253 
Q 2019 853 2116 503 
Q 2222 878 2363 1253 
L 3600 4581 
L 4219 4581 
L 2425 0 
L 1803 0 
z
" id="ArialMT-56" transform="scale(0.015625)"/>
     </defs>
     <use xlink:href="#ArialMT-43"/>
     <use x="72.216797" xlink:href="#ArialMT-72"/>
     <use x="105.517578" xlink:href="#ArialMT-6f"/>
     <use x="161.132812" xlink:href="#ArialMT-73"/>
     <use x="211.132812" xlink:href="#ArialMT-73"/>
     <use x="261.132812" xlink:href="#ArialMT-2d"/>
     <use x="294.433594" xlink:href="#ArialMT-6c"/>
     <use x="316.650391" xlink:href="#ArialMT-69"/>
     <use x="338.867188" xlink:href="#ArialMT-6e"/>
     <use x="394.482422" xlink:href="#ArialMT-6b"/>
     <use x="444.482422" xlink:href="#ArialMT-20"/>
     <use x="472.265625" xlink:href="#ArialMT-56"/>
     <use x="537.214844" xlink:href="#ArialMT-69"/>
     <use x="559.431641" xlink:href="#ArialMT-6f"/>
     <use x="615.046875" xlink:href="#ArialMT-6c"/>
     <use x="637.263672" xlink:href="#ArialMT-61"/>
     <use x="692.878906" xlink:href="#ArialMT-74"/>
     <use x="720.662109" xlink:href="#ArialMT-69"/>
     <use x="742.878906" xlink:href="#ArialMT-6f"/>
     <use x="798.494141" xlink:href="#ArialMT-6e"/>
     <use x="854.109375" xlink:href="#ArialMT-73"/>
     <use x="904.109375" xlink:href="#ArialMT-20"/>
     <use x="931.892578" xlink:href="#ArialMT-76"/>
     <use x="981.892578" xlink:href="#ArialMT-73"/>
     <use x="1031.892578" xlink:href="#ArialMT-20"/>
     <use x="1059.675781" xlink:href="#ArialMT-50"/>
     <use x="1119" xlink:href="#ArialMT-41"/>
     <use x="1185.699219" xlink:href="#ArialMT-45"/>
    </g>
   </g>
   <g id="legend_1"/>
  </g>
 </g>
 <defs>
  <clipPath id="p60c7ee43cb">
   <rect height="271.8" width="446.4" x="72" y="43.2"/>
  </clipPath>
 </defs>
</svg>
