<?xml version="1.0" encoding="utf-8" standalone="no"?>
<!DOCTYPE svg PUBLIC "-//W3C//DTD SVG 1.1//EN"
  "http://www.w3.org/Graphics/SVG/1.1/DTD/svg11.dtd">
<svg height="72pt" version="1.1" viewBox="0 0 576 72" width="576pt" xmlns="http://www.w3.org/2000/svg" xmlns:xlink="http://www.w3.org/1999/xlink">
 <metadata>
  <rdf:RDF xmlns:cc="http://creativecommons.org/ns#" xmlns:dc="http://purl.org/dc/elements/1.1/" xmlns:rdf="http://www.w3.org/1999/02/22-rdf-syntax-ns#">
   <cc:Work>
    <dc:type rdf:resource="http://purl.org/dc/dcmitype/StillImage"/>
    <dc:date>2022-06-14T12:29:42.664979</dc:date>
    <dc:format>image/svg+xml</dc:format>
    <dc:creator>
     <cc:Agent>
      <dc:title>Matplotlib v3.4.3, https://matplotlib.org/</dc:title>
     </cc:Agent>
    </dc:creator>
   </cc:Work>
  </rdf:RDF>
 </metadata>
 <defs>
  <style type="text/css">*{stroke-linecap:butt;stroke-linejoin:round;}</style>
 </defs>
 <g id="figure_1">
  <g id="patch_1">
   <path d="M 0 72 
L 576 72 
L 576 0 
L 0 0 
z
" style="fill:#ffffff;"/>
  </g>
  <g id="axes_1">
   <g id="patch_2">
    <path d="M 72 63 
L 518.4 63 
L 518.4 8.64 
L 72 8.64 
z
" style="fill:#ffffff;"/>
   </g>
   <g id="matplotlib.axis_1">
    <g id="xtick_1">
     <g id="line2d_1">
      <path clip-path="url(#pf5e8d95b93)" d="M 72 63 
L 72 8.64 
" style="fill:none;stroke:#cccccc;stroke-linecap:round;"/>
     </g>
     <g id="text_1">
      <!-- 0.5 -->
      <g style="fill:#262626;" transform="translate(64.355 80.373594)scale(0.11 -0.11)">
       <defs>
        <path d="M 266 2259 
Q 266 3072 433 3567 
Q 600 4063 929 4331 
Q 1259 4600 1759 4600 
Q 2128 4600 2406 4451 
Q 2684 4303 2865 4023 
Q 3047 3744 3150 3342 
Q 3253 2941 3253 2259 
Q 3253 1453 3087 958 
Q 2922 463 2592 192 
Q 2263 -78 1759 -78 
Q 1097 -78 719 397 
Q 266 969 266 2259 
z
M 844 2259 
Q 844 1131 1108 757 
Q 1372 384 1759 384 
Q 2147 384 2411 759 
Q 2675 1134 2675 2259 
Q 2675 3391 2411 3762 
Q 2147 4134 1753 4134 
Q 1366 4134 1134 3806 
Q 844 3388 844 2259 
z
" id="ArialMT-30" transform="scale(0.015625)"/>
        <path d="M 581 0 
L 581 641 
L 1222 641 
L 1222 0 
L 581 0 
z
" id="ArialMT-2e" transform="scale(0.015625)"/>
        <path d="M 266 1200 
L 856 1250 
Q 922 819 1161 601 
Q 1400 384 1738 384 
Q 2144 384 2425 690 
Q 2706 997 2706 1503 
Q 2706 1984 2436 2262 
Q 2166 2541 1728 2541 
Q 1456 2541 1237 2417 
Q 1019 2294 894 2097 
L 366 2166 
L 809 4519 
L 3088 4519 
L 3088 3981 
L 1259 3981 
L 1013 2750 
Q 1425 3038 1878 3038 
Q 2478 3038 2890 2622 
Q 3303 2206 3303 1553 
Q 3303 931 2941 478 
Q 2500 -78 1738 -78 
Q 1113 -78 717 272 
Q 322 622 266 1200 
z
" id="ArialMT-35" transform="scale(0.015625)"/>
       </defs>
       <use xlink:href="#ArialMT-30"/>
       <use x="55.615234" xlink:href="#ArialMT-2e"/>
       <use x="83.398438" xlink:href="#ArialMT-35"/>
      </g>
     </g>
    </g>
    <g id="xtick_2">
     <g id="line2d_2">
      <path clip-path="url(#pf5e8d95b93)" d="M 121.6 63 
L 121.6 8.64 
" style="fill:none;stroke:#cccccc;stroke-linecap:round;"/>
     </g>
     <g id="text_2">
      <!-- 1.0 -->
      <g style="fill:#262626;" transform="translate(113.955 80.373594)scale(0.11 -0.11)">
       <defs>
        <path d="M 2384 0 
L 1822 0 
L 1822 3584 
Q 1619 3391 1289 3197 
Q 959 3003 697 2906 
L 697 3450 
Q 1169 3672 1522 3987 
Q 1875 4303 2022 4600 
L 2384 4600 
L 2384 0 
z
" id="ArialMT-31" transform="scale(0.015625)"/>
       </defs>
       <use xlink:href="#ArialMT-31"/>
       <use x="55.615234" xlink:href="#ArialMT-2e"/>
       <use x="83.398438" xlink:href="#ArialMT-30"/>
      </g>
     </g>
    </g>
    <g id="xtick_3">
     <g id="line2d_3">
      <path clip-path="url(#pf5e8d95b93)" d="M 171.2 63 
L 171.2 8.64 
" style="fill:none;stroke:#cccccc;stroke-linecap:round;"/>
     </g>
     <g id="text_3">
      <!-- 1.5 -->
      <g style="fill:#262626;" transform="translate(163.555 80.373594)scale(0.11 -0.11)">
       <use xlink:href="#ArialMT-31"/>
       <use x="55.615234" xlink:href="#ArialMT-2e"/>
       <use x="83.398438" xlink:href="#ArialMT-35"/>
      </g>
     </g>
    </g>
    <g id="xtick_4">
     <g id="line2d_4">
      <path clip-path="url(#pf5e8d95b93)" d="M 220.8 63 
L 220.8 8.64 
" style="fill:none;stroke:#cccccc;stroke-linecap:round;"/>
     </g>
     <g id="text_4">
      <!-- 2.0 -->
      <g style="fill:#262626;" transform="translate(213.155 80.373594)scale(0.11 -0.11)">
       <defs>
        <path d="M 3222 541 
L 3222 0 
L 194 0 
Q 188 203 259 391 
Q 375 700 629 1000 
Q 884 1300 1366 1694 
Q 2113 2306 2375 2664 
Q 2638 3022 2638 3341 
Q 2638 3675 2398 3904 
Q 2159 4134 1775 4134 
Q 1369 4134 1125 3890 
Q 881 3647 878 3216 
L 300 3275 
Q 359 3922 746 4261 
Q 1134 4600 1788 4600 
Q 2447 4600 2831 4234 
Q 3216 3869 3216 3328 
Q 3216 3053 3103 2787 
Q 2991 2522 2730 2228 
Q 2469 1934 1863 1422 
Q 1356 997 1212 845 
Q 1069 694 975 541 
L 3222 541 
z
" id="ArialMT-32" transform="scale(0.015625)"/>
       </defs>
       <use xlink:href="#ArialMT-32"/>
       <use x="55.615234" xlink:href="#ArialMT-2e"/>
       <use x="83.398438" xlink:href="#ArialMT-30"/>
      </g>
     </g>
    </g>
    <g id="xtick_5">
     <g id="line2d_5">
      <path clip-path="url(#pf5e8d95b93)" d="M 270.4 63 
L 270.4 8.64 
" style="fill:none;stroke:#cccccc;stroke-linecap:round;"/>
     </g>
     <g id="text_5">
      <!-- 2.5 -->
      <g style="fill:#262626;" transform="translate(262.755 80.373594)scale(0.11 -0.11)">
       <use xlink:href="#ArialMT-32"/>
       <use x="55.615234" xlink:href="#ArialMT-2e"/>
       <use x="83.398438" xlink:href="#ArialMT-35"/>
      </g>
     </g>
    </g>
    <g id="xtick_6">
     <g id="line2d_6">
      <path clip-path="url(#pf5e8d95b93)" d="M 320 63 
L 320 8.64 
" style="fill:none;stroke:#cccccc;stroke-linecap:round;"/>
     </g>
     <g id="text_6">
      <!-- 3.0 -->
      <g style="fill:#262626;" transform="translate(312.355 80.373594)scale(0.11 -0.11)">
       <defs>
        <path d="M 269 1209 
L 831 1284 
Q 928 806 1161 595 
Q 1394 384 1728 384 
Q 2125 384 2398 659 
Q 2672 934 2672 1341 
Q 2672 1728 2419 1979 
Q 2166 2231 1775 2231 
Q 1616 2231 1378 2169 
L 1441 2663 
Q 1497 2656 1531 2656 
Q 1891 2656 2178 2843 
Q 2466 3031 2466 3422 
Q 2466 3731 2256 3934 
Q 2047 4138 1716 4138 
Q 1388 4138 1169 3931 
Q 950 3725 888 3313 
L 325 3413 
Q 428 3978 793 4289 
Q 1159 4600 1703 4600 
Q 2078 4600 2393 4439 
Q 2709 4278 2876 4000 
Q 3044 3722 3044 3409 
Q 3044 3113 2884 2869 
Q 2725 2625 2413 2481 
Q 2819 2388 3044 2092 
Q 3269 1797 3269 1353 
Q 3269 753 2831 336 
Q 2394 -81 1725 -81 
Q 1122 -81 723 278 
Q 325 638 269 1209 
z
" id="ArialMT-33" transform="scale(0.015625)"/>
       </defs>
       <use xlink:href="#ArialMT-33"/>
       <use x="55.615234" xlink:href="#ArialMT-2e"/>
       <use x="83.398438" xlink:href="#ArialMT-30"/>
      </g>
     </g>
    </g>
    <g id="xtick_7">
     <g id="line2d_7">
      <path clip-path="url(#pf5e8d95b93)" d="M 369.6 63 
L 369.6 8.64 
" style="fill:none;stroke:#cccccc;stroke-linecap:round;"/>
     </g>
     <g id="text_7">
      <!-- 3.5 -->
      <g style="fill:#262626;" transform="translate(361.955 80.373594)scale(0.11 -0.11)">
       <use xlink:href="#ArialMT-33"/>
       <use x="55.615234" xlink:href="#ArialMT-2e"/>
       <use x="83.398438" xlink:href="#ArialMT-35"/>
      </g>
     </g>
    </g>
    <g id="xtick_8">
     <g id="line2d_8">
      <path clip-path="url(#pf5e8d95b93)" d="M 419.2 63 
L 419.2 8.64 
" style="fill:none;stroke:#cccccc;stroke-linecap:round;"/>
     </g>
     <g id="text_8">
      <!-- 4.0 -->
      <g style="fill:#262626;" transform="translate(411.555 80.373594)scale(0.11 -0.11)">
       <defs>
        <path d="M 2069 0 
L 2069 1097 
L 81 1097 
L 81 1613 
L 2172 4581 
L 2631 4581 
L 2631 1613 
L 3250 1613 
L 3250 1097 
L 2631 1097 
L 2631 0 
L 2069 0 
z
M 2069 1613 
L 2069 3678 
L 634 1613 
L 2069 1613 
z
" id="ArialMT-34" transform="scale(0.015625)"/>
       </defs>
       <use xlink:href="#ArialMT-34"/>
       <use x="55.615234" xlink:href="#ArialMT-2e"/>
       <use x="83.398438" xlink:href="#ArialMT-30"/>
      </g>
     </g>
    </g>
    <g id="xtick_9">
     <g id="line2d_9">
      <path clip-path="url(#pf5e8d95b93)" d="M 468.8 63 
L 468.8 8.64 
" style="fill:none;stroke:#cccccc;stroke-linecap:round;"/>
     </g>
     <g id="text_9">
      <!-- 4.5 -->
      <g style="fill:#262626;" transform="translate(461.155 80.373594)scale(0.11 -0.11)">
       <use xlink:href="#ArialMT-34"/>
       <use x="55.615234" xlink:href="#ArialMT-2e"/>
       <use x="83.398438" xlink:href="#ArialMT-35"/>
      </g>
     </g>
    </g>
    <g id="xtick_10">
     <g id="line2d_10">
      <path clip-path="url(#pf5e8d95b93)" d="M 518.4 63 
L 518.4 8.64 
" style="fill:none;stroke:#cccccc;stroke-linecap:round;"/>
     </g>
     <g id="text_10">
      <!-- 5.0 -->
      <g style="fill:#262626;" transform="translate(510.755 80.373594)scale(0.11 -0.11)">
       <use xlink:href="#ArialMT-35"/>
       <use x="55.615234" xlink:href="#ArialMT-2e"/>
       <use x="83.398438" xlink:href="#ArialMT-30"/>
      </g>
     </g>
    </g>
   </g>
   <g id="matplotlib.axis_2">
    <g id="ytick_1">
     <g id="line2d_11">
      <path clip-path="url(#pf5e8d95b93)" d="M 72 35.82 
L 518.4 35.82 
" style="fill:none;stroke:#cccccc;stroke-linecap:round;"/>
     </g>
     <g id="text_11">
      <!-- 0 -->
      <g style="fill:#262626;" transform="translate(56.382969 39.756797)scale(0.11 -0.11)">
       <use xlink:href="#ArialMT-30"/>
      </g>
     </g>
    </g>
   </g>
   <g id="PathCollection_1">
    <defs>
     <path d="M 0 3 
C 0.795609 3 1.55874 2.683901 2.12132 2.12132 
C 2.683901 1.55874 3 0.795609 3 -0 
C 3 -0.795609 2.683901 -1.55874 2.12132 -2.12132 
C 1.55874 -2.683901 0.795609 -3 0 -3 
C -0.795609 -3 -1.55874 -2.683901 -2.12132 -2.12132 
C -2.683901 -1.55874 -3 -0.795609 -3 0 
C -3 0.795609 -2.683901 1.55874 -2.12132 2.12132 
C -1.55874 2.683901 -0.795609 3 0 3 
z
" id="C0_0_d4c91611f8"/>
    </defs>
    <g clip-path="url(#pf5e8d95b93)">
     <use style="fill:#925684;stroke:#ffffff;stroke-width:0.48;" x="116.888" xlink:href="#C0_0_d4c91611f8" y="35.82"/>
    </g>
    <g clip-path="url(#pf5e8d95b93)">
     <use style="fill:#7b4779;stroke:#ffffff;stroke-width:0.48;" x="139.2576" xlink:href="#C0_0_d4c91611f8" y="35.82"/>
    </g>
    <g clip-path="url(#pf5e8d95b93)">
     <use style="fill:#6e4071;stroke:#ffffff;stroke-width:0.48;" x="152.3024" xlink:href="#C0_0_d4c91611f8" y="35.82"/>
    </g>
    <g clip-path="url(#pf5e8d95b93)">
     <use style="fill:#653b6c;stroke:#ffffff;stroke-width:0.48;" x="161.528" xlink:href="#C0_0_d4c91611f8" y="35.82"/>
    </g>
    <g clip-path="url(#pf5e8d95b93)">
     <use style="fill:#5c3666;stroke:#ffffff;stroke-width:0.48;" x="171.0512" xlink:href="#C0_0_d4c91611f8" y="35.82"/>
    </g>
    <g clip-path="url(#pf5e8d95b93)">
     <use style="fill:#553361;stroke:#ffffff;stroke-width:0.48;" x="178.6896" xlink:href="#C0_0_d4c91611f8" y="35.82"/>
    </g>
    <g clip-path="url(#pf5e8d95b93)">
     <use style="fill:#50305d;stroke:#ffffff;stroke-width:0.48;" x="184.0464" xlink:href="#C0_0_d4c91611f8" y="35.82"/>
    </g>
    <g clip-path="url(#pf5e8d95b93)">
     <use style="fill:#4d2f5b;stroke:#ffffff;stroke-width:0.48;" x="188.808" xlink:href="#C0_0_d4c91611f8" y="35.82"/>
    </g>
    <g clip-path="url(#pf5e8d95b93)">
     <use style="fill:#4b2e59;stroke:#ffffff;stroke-width:0.48;" x="194.3632" xlink:href="#C0_0_d4c91611f8" y="35.82"/>
    </g>
    <g clip-path="url(#pf5e8d95b93)">
     <use style="fill:#462b55;stroke:#ffffff;stroke-width:0.48;" x="201.4064" xlink:href="#C0_0_d4c91611f8" y="35.82"/>
    </g>
    <g clip-path="url(#pf5e8d95b93)">
     <use style="fill:#452b54;stroke:#ffffff;stroke-width:0.48;" x="207.9536" xlink:href="#C0_0_d4c91611f8" y="35.82"/>
    </g>
    <g clip-path="url(#pf5e8d95b93)">
     <use style="fill:#402850;stroke:#ffffff;stroke-width:0.48;" x="215.6416" xlink:href="#C0_0_d4c91611f8" y="35.82"/>
    </g>
    <g clip-path="url(#pf5e8d95b93)">
     <use style="fill:#3f284f;stroke:#ffffff;stroke-width:0.48;" x="224.5696" xlink:href="#C0_0_d4c91611f8" y="35.82"/>
    </g>
    <g clip-path="url(#pf5e8d95b93)">
     <use style="fill:#3f284f;stroke:#ffffff;stroke-width:0.48;" x="233.0512" xlink:href="#C0_0_d4c91611f8" y="35.82"/>
    </g>
    <g clip-path="url(#pf5e8d95b93)">
     <use style="fill:#3f284f;stroke:#ffffff;stroke-width:0.48;" x="241.2352" xlink:href="#C0_0_d4c91611f8" y="35.82"/>
    </g>
    <g clip-path="url(#pf5e8d95b93)">
     <use style="fill:#3f284f;stroke:#ffffff;stroke-width:0.48;" x="248.9728" xlink:href="#C0_0_d4c91611f8" y="35.82"/>
    </g>
    <g clip-path="url(#pf5e8d95b93)">
     <use style="fill:#422952;stroke:#ffffff;stroke-width:0.48;" x="259.0416" xlink:href="#C0_0_d4c91611f8" y="35.82"/>
    </g>
    <g clip-path="url(#pf5e8d95b93)">
     <use style="fill:#462b55;stroke:#ffffff;stroke-width:0.48;" x="270.4" xlink:href="#C0_0_d4c91611f8" y="35.82"/>
    </g>
    <g clip-path="url(#pf5e8d95b93)">
     <use style="fill:#4c2e5a;stroke:#ffffff;stroke-width:0.48;" x="281.6592" xlink:href="#C0_0_d4c91611f8" y="35.82"/>
    </g>
    <g clip-path="url(#pf5e8d95b93)">
     <use style="fill:#533260;stroke:#ffffff;stroke-width:0.48;" x="291.6784" xlink:href="#C0_0_d4c91611f8" y="35.82"/>
    </g>
    <g clip-path="url(#pf5e8d95b93)">
     <use style="fill:#5b3665;stroke:#ffffff;stroke-width:0.48;" x="301.9952" xlink:href="#C0_0_d4c91611f8" y="35.82"/>
    </g>
    <g clip-path="url(#pf5e8d95b93)">
     <use style="fill:#673c6d;stroke:#ffffff;stroke-width:0.48;" x="315.1888" xlink:href="#C0_0_d4c91611f8" y="35.82"/>
    </g>
    <g clip-path="url(#pf5e8d95b93)">
     <use style="fill:#744375;stroke:#ffffff;stroke-width:0.48;" x="329.92" xlink:href="#C0_0_d4c91611f8" y="35.82"/>
    </g>
    <g clip-path="url(#pf5e8d95b93)">
     <use style="fill:#834c7d;stroke:#ffffff;stroke-width:0.48;" x="346.6848" xlink:href="#C0_0_d4c91611f8" y="35.82"/>
    </g>
    <g clip-path="url(#pf5e8d95b93)">
     <use style="fill:#3f284f;stroke:#ffffff;stroke-width:0.48;" x="365.384" xlink:href="#C0_0_d4c91611f8" y="-1051.38"/>
    </g>
    <g clip-path="url(#pf5e8d95b93)">
     <use style="fill:#a7658e;stroke:#ffffff;stroke-width:0.48;" x="388.696" xlink:href="#C0_0_d4c91611f8" y="35.82"/>
    </g>
    <g clip-path="url(#pf5e8d95b93)">
     <use style="fill:#593564;stroke:#ffffff;stroke-width:0.48;" x="417.5632" xlink:href="#C0_0_d4c91611f8" y="-1051.38"/>
    </g>
    <g clip-path="url(#pf5e8d95b93)">
     <use style="fill:#b37093;stroke:#ffffff;stroke-width:0.48;" x="450.3488" xlink:href="#C0_0_d4c91611f8" y="-3225.78"/>
    </g>
    <g clip-path="url(#pf5e8d95b93)">
     <use style="fill:#d194a4;stroke:#ffffff;stroke-width:0.48;" x="485.8624" xlink:href="#C0_0_d4c91611f8" y="35.82"/>
    </g>
    <g clip-path="url(#pf5e8d95b93)">
     <use style="fill:#5c3666;stroke:#ffffff;stroke-width:0.48;" x="513.936" xlink:href="#C0_0_d4c91611f8" y="-2138.58"/>
    </g>
    <g clip-path="url(#pf5e8d95b93)">
     <use style="fill:#784577;stroke:#ffffff;stroke-width:0.48;" x="543.5472" xlink:href="#C0_0_d4c91611f8" y="-3225.78"/>
    </g>
    <g clip-path="url(#pf5e8d95b93)">
     <use style="fill:#b97596;stroke:#ffffff;stroke-width:0.48;" x="583.7232" xlink:href="#C0_0_d4c91611f8" y="-4312.98"/>
    </g>
    <g clip-path="url(#pf5e8d95b93)">
     <use style="fill:#774576;stroke:#ffffff;stroke-width:0.48;" x="627.4704" xlink:href="#C0_0_d4c91611f8" y="-3225.78"/>
    </g>
    <g clip-path="url(#pf5e8d95b93)">
     <use style="fill:#8c5181;stroke:#ffffff;stroke-width:0.48;" x="668.3904" xlink:href="#C0_0_d4c91611f8" y="-3225.78"/>
    </g>
    <g clip-path="url(#pf5e8d95b93)">
     <use style="fill:#ce8fa2;stroke:#ffffff;stroke-width:0.48;" x="710.0048" xlink:href="#C0_0_d4c91611f8" y="-2138.58"/>
    </g>
    <g clip-path="url(#pf5e8d95b93)">
     <use style="fill:#c2809b;stroke:#ffffff;stroke-width:0.48;" x="774.6832" xlink:href="#C0_0_d4c91611f8" y="-3225.78"/>
    </g>
    <g clip-path="url(#pf5e8d95b93)">
     <use style="fill:#af6c91;stroke:#ffffff;stroke-width:0.48;" x="841.9904" xlink:href="#C0_0_d4c91611f8" y="-5400.18"/>
    </g>
    <g clip-path="url(#pf5e8d95b93)">
     <use style="fill:#dca7ae;stroke:#ffffff;stroke-width:0.48;" x="919.1184" xlink:href="#C0_0_d4c91611f8" y="-2138.58"/>
    </g>
    <g clip-path="url(#pf5e8d95b93)">
     <use style="fill:#dda9af;stroke:#ffffff;stroke-width:0.48;" x="1007.9024" xlink:href="#C0_0_d4c91611f8" y="-2138.58"/>
    </g>
    <g clip-path="url(#pf5e8d95b93)">
     <use style="fill:#d59aa7;stroke:#ffffff;stroke-width:0.48;" x="1119.5024" xlink:href="#C0_0_d4c91611f8" y="-6487.38"/>
    </g>
    <g clip-path="url(#pf5e8d95b93)">
     <use style="fill:#dca6ae;stroke:#ffffff;stroke-width:0.48;" x="1260.3168" xlink:href="#C0_0_d4c91611f8" y="-9748.98"/>
    </g>
    <g clip-path="url(#pf5e8d95b93)">
     <use style="fill:#dca6ae;stroke:#ffffff;stroke-width:0.48;" x="1410.1088" xlink:href="#C0_0_d4c91611f8" y="-6487.38"/>
    </g>
    <g clip-path="url(#pf5e8d95b93)">
     <use style="fill:#ddaab0;stroke:#ffffff;stroke-width:0.48;" x="1585.3456" xlink:href="#C0_0_d4c91611f8" y="-8661.78"/>
    </g>
    <g clip-path="url(#pf5e8d95b93)">
     <use style="fill:#e1b1b4;stroke:#ffffff;stroke-width:0.48;" x="1742.9248" xlink:href="#C0_0_d4c91611f8" y="-18446.58"/>
    </g>
    <g clip-path="url(#pf5e8d95b93)">
     <use style="fill:#dda9af;stroke:#ffffff;stroke-width:0.48;" x="1910.1264" xlink:href="#C0_0_d4c91611f8" y="-14097.78"/>
    </g>
    <g clip-path="url(#pf5e8d95b93)">
     <use style="fill:#dda9af;stroke:#ffffff;stroke-width:0.48;" x="2142.4032" xlink:href="#C0_0_d4c91611f8" y="-16272.18"/>
    </g>
    <g clip-path="url(#pf5e8d95b93)">
     <use style="fill:#dfaeb2;stroke:#ffffff;stroke-width:0.48;" x="2393.7264" xlink:href="#C0_0_d4c91611f8" y="-17359.38"/>
    </g>
    <g clip-path="url(#pf5e8d95b93)">
     <use style="fill:#dfaeb2;stroke:#ffffff;stroke-width:0.48;" x="2656.8544" xlink:href="#C0_0_d4c91611f8" y="-22795.38"/>
    </g>
    <g clip-path="url(#pf5e8d95b93)">
     <use style="fill:#e0afb3;stroke:#ffffff;stroke-width:0.48;" x="2907.7808" xlink:href="#C0_0_d4c91611f8" y="-26056.98"/>
    </g>
   </g>
   <g id="PathCollection_2"/>
   <g id="PathCollection_3"/>
   <g id="PathCollection_4"/>
   <g id="PathCollection_5"/>
   <g id="patch_3">
    <path d="M 72 63 
L 72 8.64 
" style="fill:none;stroke:#cccccc;stroke-linecap:square;stroke-linejoin:miter;stroke-width:1.25;"/>
   </g>
   <g id="patch_4">
    <path d="M 518.4 63 
L 518.4 8.64 
" style="fill:none;stroke:#cccccc;stroke-linecap:square;stroke-linejoin:miter;stroke-width:1.25;"/>
   </g>
   <g id="patch_5">
    <path d="M 72 63 
L 518.4 63 
" style="fill:none;stroke:#cccccc;stroke-linecap:square;stroke-linejoin:miter;stroke-width:1.25;"/>
   </g>
   <g id="patch_6">
    <path d="M 72 8.64 
L 518.4 8.64 
" style="fill:none;stroke:#cccccc;stroke-linecap:square;stroke-linejoin:miter;stroke-width:1.25;"/>
   </g>
   <g id="legend_1"/>
  </g>
 </g>
 <defs>
  <clipPath id="pf5e8d95b93">
   <rect height="54.36" width="446.4" x="72" y="8.64"/>
  </clipPath>
 </defs>
</svg>
