<?xml version="1.0" encoding="utf-8" standalone="no"?>
<!DOCTYPE svg PUBLIC "-//W3C//DTD SVG 1.1//EN"
  "http://www.w3.org/Graphics/SVG/1.1/DTD/svg11.dtd">
<svg height="72pt" version="1.1" viewBox="0 0 576 72" width="576pt" xmlns="http://www.w3.org/2000/svg" xmlns:xlink="http://www.w3.org/1999/xlink">
 <metadata>
  <rdf:RDF xmlns:cc="http://creativecommons.org/ns#" xmlns:dc="http://purl.org/dc/elements/1.1/" xmlns:rdf="http://www.w3.org/1999/02/22-rdf-syntax-ns#">
   <cc:Work>
    <dc:type rdf:resource="http://purl.org/dc/dcmitype/StillImage"/>
    <dc:date>2022-07-12T14:51:37.478416</dc:date>
    <dc:format>image/svg+xml</dc:format>
    <dc:creator>
     <cc:Agent>
      <dc:title>Matplotlib v3.4.3, https://matplotlib.org/</dc:title>
     </cc:Agent>
    </dc:creator>
   </cc:Work>
  </rdf:RDF>
 </metadata>
 <defs>
  <style type="text/css">*{stroke-linecap:butt;stroke-linejoin:round;}</style>
 </defs>
 <g id="figure_1">
  <g id="patch_1">
   <path d="M 0 72 
L 576 72 
L 576 0 
L 0 0 
z
" style="fill:#ffffff;"/>
  </g>
  <g id="axes_1">
   <g id="patch_2">
    <path d="M 72 63 
L 518.4 63 
L 518.4 8.64 
L 72 8.64 
z
" style="fill:#ffffff;"/>
   </g>
   <g id="matplotlib.axis_1">
    <g id="xtick_1">
     <g id="line2d_1">
      <path clip-path="url(#p96d5a46d5d)" d="M 72 63 
L 72 8.64 
" style="fill:none;stroke:#cccccc;stroke-linecap:round;"/>
     </g>
     <g id="text_1">
      <!-- 0.0 -->
      <g style="fill:#262626;" transform="translate(64.355 80.373594)scale(0.11 -0.11)">
       <defs>
        <path d="M 266 2259 
Q 266 3072 433 3567 
Q 600 4063 929 4331 
Q 1259 4600 1759 4600 
Q 2128 4600 2406 4451 
Q 2684 4303 2865 4023 
Q 3047 3744 3150 3342 
Q 3253 2941 3253 2259 
Q 3253 1453 3087 958 
Q 2922 463 2592 192 
Q 2263 -78 1759 -78 
Q 1097 -78 719 397 
Q 266 969 266 2259 
z
M 844 2259 
Q 844 1131 1108 757 
Q 1372 384 1759 384 
Q 2147 384 2411 759 
Q 2675 1134 2675 2259 
Q 2675 3391 2411 3762 
Q 2147 4134 1753 4134 
Q 1366 4134 1134 3806 
Q 844 3388 844 2259 
z
" id="ArialMT-30" transform="scale(0.015625)"/>
        <path d="M 581 0 
L 581 641 
L 1222 641 
L 1222 0 
L 581 0 
z
" id="ArialMT-2e" transform="scale(0.015625)"/>
       </defs>
       <use xlink:href="#ArialMT-30"/>
       <use x="55.615234" xlink:href="#ArialMT-2e"/>
       <use x="83.398438" xlink:href="#ArialMT-30"/>
      </g>
     </g>
    </g>
    <g id="xtick_2">
     <g id="line2d_2">
      <path clip-path="url(#p96d5a46d5d)" d="M 135.771429 63 
L 135.771429 8.64 
" style="fill:none;stroke:#cccccc;stroke-linecap:round;"/>
     </g>
     <g id="text_2">
      <!-- 0.5 -->
      <g style="fill:#262626;" transform="translate(128.126429 80.373594)scale(0.11 -0.11)">
       <defs>
        <path d="M 266 1200 
L 856 1250 
Q 922 819 1161 601 
Q 1400 384 1738 384 
Q 2144 384 2425 690 
Q 2706 997 2706 1503 
Q 2706 1984 2436 2262 
Q 2166 2541 1728 2541 
Q 1456 2541 1237 2417 
Q 1019 2294 894 2097 
L 366 2166 
L 809 4519 
L 3088 4519 
L 3088 3981 
L 1259 3981 
L 1013 2750 
Q 1425 3038 1878 3038 
Q 2478 3038 2890 2622 
Q 3303 2206 3303 1553 
Q 3303 931 2941 478 
Q 2500 -78 1738 -78 
Q 1113 -78 717 272 
Q 322 622 266 1200 
z
" id="ArialMT-35" transform="scale(0.015625)"/>
       </defs>
       <use xlink:href="#ArialMT-30"/>
       <use x="55.615234" xlink:href="#ArialMT-2e"/>
       <use x="83.398438" xlink:href="#ArialMT-35"/>
      </g>
     </g>
    </g>
    <g id="xtick_3">
     <g id="line2d_3">
      <path clip-path="url(#p96d5a46d5d)" d="M 199.542857 63 
L 199.542857 8.64 
" style="fill:none;stroke:#cccccc;stroke-linecap:round;"/>
     </g>
     <g id="text_3">
      <!-- 1.0 -->
      <g style="fill:#262626;" transform="translate(191.897857 80.373594)scale(0.11 -0.11)">
       <defs>
        <path d="M 2384 0 
L 1822 0 
L 1822 3584 
Q 1619 3391 1289 3197 
Q 959 3003 697 2906 
L 697 3450 
Q 1169 3672 1522 3987 
Q 1875 4303 2022 4600 
L 2384 4600 
L 2384 0 
z
" id="ArialMT-31" transform="scale(0.015625)"/>
       </defs>
       <use xlink:href="#ArialMT-31"/>
       <use x="55.615234" xlink:href="#ArialMT-2e"/>
       <use x="83.398438" xlink:href="#ArialMT-30"/>
      </g>
     </g>
    </g>
    <g id="xtick_4">
     <g id="line2d_4">
      <path clip-path="url(#p96d5a46d5d)" d="M 263.314286 63 
L 263.314286 8.64 
" style="fill:none;stroke:#cccccc;stroke-linecap:round;"/>
     </g>
     <g id="text_4">
      <!-- 1.5 -->
      <g style="fill:#262626;" transform="translate(255.669286 80.373594)scale(0.11 -0.11)">
       <use xlink:href="#ArialMT-31"/>
       <use x="55.615234" xlink:href="#ArialMT-2e"/>
       <use x="83.398438" xlink:href="#ArialMT-35"/>
      </g>
     </g>
    </g>
    <g id="xtick_5">
     <g id="line2d_5">
      <path clip-path="url(#p96d5a46d5d)" d="M 327.085714 63 
L 327.085714 8.64 
" style="fill:none;stroke:#cccccc;stroke-linecap:round;"/>
     </g>
     <g id="text_5">
      <!-- 2.0 -->
      <g style="fill:#262626;" transform="translate(319.440714 80.373594)scale(0.11 -0.11)">
       <defs>
        <path d="M 3222 541 
L 3222 0 
L 194 0 
Q 188 203 259 391 
Q 375 700 629 1000 
Q 884 1300 1366 1694 
Q 2113 2306 2375 2664 
Q 2638 3022 2638 3341 
Q 2638 3675 2398 3904 
Q 2159 4134 1775 4134 
Q 1369 4134 1125 3890 
Q 881 3647 878 3216 
L 300 3275 
Q 359 3922 746 4261 
Q 1134 4600 1788 4600 
Q 2447 4600 2831 4234 
Q 3216 3869 3216 3328 
Q 3216 3053 3103 2787 
Q 2991 2522 2730 2228 
Q 2469 1934 1863 1422 
Q 1356 997 1212 845 
Q 1069 694 975 541 
L 3222 541 
z
" id="ArialMT-32" transform="scale(0.015625)"/>
       </defs>
       <use xlink:href="#ArialMT-32"/>
       <use x="55.615234" xlink:href="#ArialMT-2e"/>
       <use x="83.398438" xlink:href="#ArialMT-30"/>
      </g>
     </g>
    </g>
    <g id="xtick_6">
     <g id="line2d_6">
      <path clip-path="url(#p96d5a46d5d)" d="M 390.857143 63 
L 390.857143 8.64 
" style="fill:none;stroke:#cccccc;stroke-linecap:round;"/>
     </g>
     <g id="text_6">
      <!-- 2.5 -->
      <g style="fill:#262626;" transform="translate(383.212143 80.373594)scale(0.11 -0.11)">
       <use xlink:href="#ArialMT-32"/>
       <use x="55.615234" xlink:href="#ArialMT-2e"/>
       <use x="83.398438" xlink:href="#ArialMT-35"/>
      </g>
     </g>
    </g>
    <g id="xtick_7">
     <g id="line2d_7">
      <path clip-path="url(#p96d5a46d5d)" d="M 454.628571 63 
L 454.628571 8.64 
" style="fill:none;stroke:#cccccc;stroke-linecap:round;"/>
     </g>
     <g id="text_7">
      <!-- 3.0 -->
      <g style="fill:#262626;" transform="translate(446.983571 80.373594)scale(0.11 -0.11)">
       <defs>
        <path d="M 269 1209 
L 831 1284 
Q 928 806 1161 595 
Q 1394 384 1728 384 
Q 2125 384 2398 659 
Q 2672 934 2672 1341 
Q 2672 1728 2419 1979 
Q 2166 2231 1775 2231 
Q 1616 2231 1378 2169 
L 1441 2663 
Q 1497 2656 1531 2656 
Q 1891 2656 2178 2843 
Q 2466 3031 2466 3422 
Q 2466 3731 2256 3934 
Q 2047 4138 1716 4138 
Q 1388 4138 1169 3931 
Q 950 3725 888 3313 
L 325 3413 
Q 428 3978 793 4289 
Q 1159 4600 1703 4600 
Q 2078 4600 2393 4439 
Q 2709 4278 2876 4000 
Q 3044 3722 3044 3409 
Q 3044 3113 2884 2869 
Q 2725 2625 2413 2481 
Q 2819 2388 3044 2092 
Q 3269 1797 3269 1353 
Q 3269 753 2831 336 
Q 2394 -81 1725 -81 
Q 1122 -81 723 278 
Q 325 638 269 1209 
z
" id="ArialMT-33" transform="scale(0.015625)"/>
       </defs>
       <use xlink:href="#ArialMT-33"/>
       <use x="55.615234" xlink:href="#ArialMT-2e"/>
       <use x="83.398438" xlink:href="#ArialMT-30"/>
      </g>
     </g>
    </g>
    <g id="xtick_8">
     <g id="line2d_8">
      <path clip-path="url(#p96d5a46d5d)" d="M 518.4 63 
L 518.4 8.64 
" style="fill:none;stroke:#cccccc;stroke-linecap:round;"/>
     </g>
     <g id="text_8">
      <!-- 3.5 -->
      <g style="fill:#262626;" transform="translate(510.755 80.373594)scale(0.11 -0.11)">
       <use xlink:href="#ArialMT-33"/>
       <use x="55.615234" xlink:href="#ArialMT-2e"/>
       <use x="83.398438" xlink:href="#ArialMT-35"/>
      </g>
     </g>
    </g>
   </g>
   <g id="matplotlib.axis_2">
    <g id="ytick_1">
     <g id="line2d_9">
      <path clip-path="url(#p96d5a46d5d)" d="M 72 35.82 
L 518.4 35.82 
" style="fill:none;stroke:#cccccc;stroke-linecap:round;"/>
     </g>
     <g id="text_9">
      <!-- 0 -->
      <g style="fill:#262626;" transform="translate(56.382969 39.756797)scale(0.11 -0.11)">
       <use xlink:href="#ArialMT-30"/>
      </g>
     </g>
    </g>
   </g>
   <g id="PathCollection_1">
    <defs>
     <path d="M 0 3 
C 0.795609 3 1.55874 2.683901 2.12132 2.12132 
C 2.683901 1.55874 3 0.795609 3 0 
C 3 -0.795609 2.683901 -1.55874 2.12132 -2.12132 
C 1.55874 -2.683901 0.795609 -3 0 -3 
C -0.795609 -3 -1.55874 -2.683901 -2.12132 -2.12132 
C -2.683901 -1.55874 -3 -0.795609 -3 0 
C -3 0.795609 -2.683901 1.55874 -2.12132 2.12132 
C -1.55874 2.683901 -0.795609 3 0 3 
z
" id="m99dafbfc7e" style="stroke:#ffffff;stroke-width:0.48;"/>
    </defs>
    <g clip-path="url(#p96d5a46d5d)">
     <use style="fill:#5c3666;stroke:#ffffff;stroke-width:0.48;" x="193.075495" xlink:href="#m99dafbfc7e" y="35.82"/>
     <use style="fill:#5c3666;stroke:#ffffff;stroke-width:0.48;" x="222.518803" xlink:href="#m99dafbfc7e" y="35.82"/>
     <use style="fill:#5c3666;stroke:#ffffff;stroke-width:0.48;" x="239.728853" xlink:href="#m99dafbfc7e" y="35.82"/>
     <use style="fill:#5c3666;stroke:#ffffff;stroke-width:0.48;" x="251.309368" xlink:href="#m99dafbfc7e" y="35.82"/>
     <use style="fill:#5c3666;stroke:#ffffff;stroke-width:0.48;" x="262.799116" xlink:href="#m99dafbfc7e" y="35.82"/>
     <use style="fill:#5c3666;stroke:#ffffff;stroke-width:0.48;" x="272.582158" xlink:href="#m99dafbfc7e" y="35.82"/>
     <use style="fill:#5c3666;stroke:#ffffff;stroke-width:0.48;" x="279.393096" xlink:href="#m99dafbfc7e" y="35.82"/>
     <use style="fill:#5c3666;stroke:#ffffff;stroke-width:0.48;" x="285.944567" xlink:href="#m99dafbfc7e" y="35.82"/>
     <use style="fill:#5c3666;stroke:#ffffff;stroke-width:0.48;" x="292.841429" xlink:href="#m99dafbfc7e" y="35.82"/>
     <use style="fill:#5c3666;stroke:#ffffff;stroke-width:0.48;" x="302.362797" xlink:href="#m99dafbfc7e" y="35.82"/>
     <use style="fill:#5c3666;stroke:#ffffff;stroke-width:0.48;" x="310.097474" xlink:href="#m99dafbfc7e" y="35.82"/>
     <use style="fill:#5c3666;stroke:#ffffff;stroke-width:0.48;" x="320.865318" xlink:href="#m99dafbfc7e" y="35.82"/>
     <use style="fill:#5c3666;stroke:#ffffff;stroke-width:0.48;" x="332.276997" xlink:href="#m99dafbfc7e" y="35.82"/>
     <use style="fill:#5c3666;stroke:#ffffff;stroke-width:0.48;" x="343.180472" xlink:href="#m99dafbfc7e" y="35.82"/>
     <use style="fill:#5c3666;stroke:#ffffff;stroke-width:0.48;" x="352.520475" xlink:href="#m99dafbfc7e" y="35.82"/>
     <use style="fill:#5c3666;stroke:#ffffff;stroke-width:0.48;" x="362.834125" xlink:href="#m99dafbfc7e" y="35.82"/>
     <use style="fill:#5c3666;stroke:#ffffff;stroke-width:0.48;" x="375.511397" xlink:href="#m99dafbfc7e" y="35.82"/>
     <use style="fill:#5c3666;stroke:#ffffff;stroke-width:0.48;" x="389.951941" xlink:href="#m99dafbfc7e" y="35.82"/>
     <use style="fill:#5c3666;stroke:#ffffff;stroke-width:0.48;" x="404.606377" xlink:href="#m99dafbfc7e" y="35.82"/>
     <use style="fill:#5c3666;stroke:#ffffff;stroke-width:0.48;" x="418.904074" xlink:href="#m99dafbfc7e" y="35.82"/>
     <use style="fill:#5c3666;stroke:#ffffff;stroke-width:0.48;" x="430.419537" xlink:href="#m99dafbfc7e" y="35.82"/>
     <use style="fill:#5c3666;stroke:#ffffff;stroke-width:0.48;" x="449.910277" xlink:href="#m99dafbfc7e" y="35.82"/>
     <use style="fill:#5c3666;stroke:#ffffff;stroke-width:0.48;" x="465.342374" xlink:href="#m99dafbfc7e" y="35.82"/>
     <use style="fill:#5c3666;stroke:#ffffff;stroke-width:0.48;" x="489.879847" xlink:href="#m99dafbfc7e" y="35.82"/>
     <use style="fill:#5c3666;stroke:#ffffff;stroke-width:0.48;" x="490.682615" xlink:href="#m99dafbfc7e" y="-1"/>
     <use style="fill:#5c3666;stroke:#ffffff;stroke-width:0.48;" x="540.523823" xlink:href="#m99dafbfc7e" y="-1"/>
     <use style="fill:#5c3666;stroke:#ffffff;stroke-width:0.48;" x="541.468189" xlink:href="#m99dafbfc7e" y="35.82"/>
     <use style="fill:#5c3666;stroke:#ffffff;stroke-width:0.48;" x="542.767638" xlink:href="#m99dafbfc7e" y="-1"/>
     <use style="fill:#5c3666;stroke:#ffffff;stroke-width:0.48;" x="671.826895" xlink:href="#m99dafbfc7e" y="-1"/>
     <use style="fill:#5c3666;stroke:#ffffff;stroke-width:0.48;" x="672.429422" xlink:href="#m99dafbfc7e" y="35.82"/>
     <use style="fill:#5c3666;stroke:#ffffff;stroke-width:0.48;" x="672.921452" xlink:href="#m99dafbfc7e" y="-1"/>
    </g>
   </g>
   <g id="LineCollection_1">
    <path clip-path="url(#p96d5a46d5d)" d="M 184.667251 35.82 
L 201.48374 35.82 
" style="fill:none;stroke:#5c3666;stroke-width:0.5;"/>
    <path clip-path="url(#p96d5a46d5d)" d="M 216.328383 35.82 
L 228.709223 35.82 
" style="fill:none;stroke:#5c3666;stroke-width:0.5;"/>
    <path clip-path="url(#p96d5a46d5d)" d="M 236.736533 35.82 
L 242.721173 35.82 
" style="fill:none;stroke:#5c3666;stroke-width:0.5;"/>
    <path clip-path="url(#p96d5a46d5d)" d="M 247.580997 35.82 
L 255.037739 35.82 
" style="fill:none;stroke:#5c3666;stroke-width:0.5;"/>
    <path clip-path="url(#p96d5a46d5d)" d="M 259.188595 35.82 
L 266.409636 35.82 
" style="fill:none;stroke:#5c3666;stroke-width:0.5;"/>
    <path clip-path="url(#p96d5a46d5d)" d="M 270.10416 35.82 
L 275.060156 35.82 
" style="fill:none;stroke:#5c3666;stroke-width:0.5;"/>
    <path clip-path="url(#p96d5a46d5d)" d="M 277.766185 35.82 
L 281.020007 35.82 
" style="fill:none;stroke:#5c3666;stroke-width:0.5;"/>
    <path clip-path="url(#p96d5a46d5d)" d="M 284.115734 35.82 
L 287.7734 35.82 
" style="fill:none;stroke:#5c3666;stroke-width:0.5;"/>
    <path clip-path="url(#p96d5a46d5d)" d="M 290.507361 35.82 
L 295.175498 35.82 
" style="fill:none;stroke:#5c3666;stroke-width:0.5;"/>
    <path clip-path="url(#p96d5a46d5d)" d="M 299.236366 35.82 
L 305.489228 35.82 
" style="fill:none;stroke:#5c3666;stroke-width:0.5;"/>
    <path clip-path="url(#p96d5a46d5d)" d="M 307.992202 35.82 
L 312.202746 35.82 
" style="fill:none;stroke:#5c3666;stroke-width:0.5;"/>
    <path clip-path="url(#p96d5a46d5d)" d="M 317.003147 35.82 
L 324.72749 35.82 
" style="fill:none;stroke:#5c3666;stroke-width:0.5;"/>
    <path clip-path="url(#p96d5a46d5d)" d="M 329.054357 35.82 
L 335.499636 35.82 
" style="fill:none;stroke:#5c3666;stroke-width:0.5;"/>
    <path clip-path="url(#p96d5a46d5d)" d="M 339.307544 35.82 
L 347.0534 35.82 
" style="fill:none;stroke:#5c3666;stroke-width:0.5;"/>
    <path clip-path="url(#p96d5a46d5d)" d="M 349.234201 35.82 
L 355.80675 35.82 
" style="fill:none;stroke:#5c3666;stroke-width:0.5;"/>
    <path clip-path="url(#p96d5a46d5d)" d="M 359.722338 35.82 
L 365.945912 35.82 
" style="fill:none;stroke:#5c3666;stroke-width:0.5;"/>
    <path clip-path="url(#p96d5a46d5d)" d="M 371.472376 35.82 
L 379.550419 35.82 
" style="fill:none;stroke:#5c3666;stroke-width:0.5;"/>
    <path clip-path="url(#p96d5a46d5d)" d="M 385.297749 35.82 
L 394.606132 35.82 
" style="fill:none;stroke:#5c3666;stroke-width:0.5;"/>
    <path clip-path="url(#p96d5a46d5d)" d="M 400.217694 35.82 
L 408.995059 35.82 
" style="fill:none;stroke:#5c3666;stroke-width:0.5;"/>
    <path clip-path="url(#p96d5a46d5d)" d="M 415.806718 35.82 
L 422.001429 35.82 
" style="fill:none;stroke:#5c3666;stroke-width:0.5;"/>
    <path clip-path="url(#p96d5a46d5d)" d="M 425.859829 35.82 
L 434.979245 35.82 
" style="fill:none;stroke:#5c3666;stroke-width:0.5;"/>
    <path clip-path="url(#p96d5a46d5d)" d="M 444.911954 35.82 
L 454.908601 35.82 
" style="fill:none;stroke:#5c3666;stroke-width:0.5;"/>
    <path clip-path="url(#p96d5a46d5d)" d="M 459.71233 35.82 
L 470.972418 35.82 
" style="fill:none;stroke:#5c3666;stroke-width:0.5;"/>
    <path clip-path="url(#p96d5a46d5d)" d="M 483.613411 35.82 
L 496.146283 35.82 
" style="fill:none;stroke:#5c3666;stroke-width:0.5;"/>
    <path clip-path="url(#p96d5a46d5d)" style="fill:none;stroke:#5c3666;stroke-width:0.5;"/>
    <path clip-path="url(#p96d5a46d5d)" d="M 530.381378 35.82 
L 552.554999 35.82 
" style="fill:none;stroke:#5c3666;stroke-width:0.5;"/>
    <path clip-path="url(#p96d5a46d5d)" style="fill:none;stroke:#5c3666;stroke-width:0.5;"/>
    <path clip-path="url(#p96d5a46d5d)" style="fill:none;stroke:#5c3666;stroke-width:0.5;"/>
    <path clip-path="url(#p96d5a46d5d)" style="fill:none;stroke:#5c3666;stroke-width:0.5;"/>
    <path clip-path="url(#p96d5a46d5d)" style="fill:none;stroke:#5c3666;stroke-width:0.5;"/>
    <path clip-path="url(#p96d5a46d5d)" style="fill:none;stroke:#5c3666;stroke-width:0.5;"/>
    <path clip-path="url(#p96d5a46d5d)" style="fill:none;stroke:#5c3666;stroke-width:0.5;"/>
    <path clip-path="url(#p96d5a46d5d)" style="fill:none;stroke:#5c3666;stroke-width:0.5;"/>
    <path clip-path="url(#p96d5a46d5d)" style="fill:none;stroke:#5c3666;stroke-width:0.5;"/>
    <path clip-path="url(#p96d5a46d5d)" style="fill:none;stroke:#5c3666;stroke-width:0.5;"/>
    <path clip-path="url(#p96d5a46d5d)" style="fill:none;stroke:#5c3666;stroke-width:0.5;"/>
    <path clip-path="url(#p96d5a46d5d)" style="fill:none;stroke:#5c3666;stroke-width:0.5;"/>
    <path clip-path="url(#p96d5a46d5d)" style="fill:none;stroke:#5c3666;stroke-width:0.5;"/>
    <path clip-path="url(#p96d5a46d5d)" style="fill:none;stroke:#5c3666;stroke-width:0.5;"/>
    <path clip-path="url(#p96d5a46d5d)" style="fill:none;stroke:#5c3666;stroke-width:0.5;"/>
    <path clip-path="url(#p96d5a46d5d)" style="fill:none;stroke:#5c3666;stroke-width:0.5;"/>
    <path clip-path="url(#p96d5a46d5d)" style="fill:none;stroke:#5c3666;stroke-width:0.5;"/>
    <path clip-path="url(#p96d5a46d5d)" style="fill:none;stroke:#5c3666;stroke-width:0.5;"/>
    <path clip-path="url(#p96d5a46d5d)" style="fill:none;stroke:#5c3666;stroke-width:0.5;"/>
    <path clip-path="url(#p96d5a46d5d)" style="fill:none;stroke:#5c3666;stroke-width:0.5;"/>
    <path clip-path="url(#p96d5a46d5d)" style="fill:none;stroke:#5c3666;stroke-width:0.5;"/>
    <path clip-path="url(#p96d5a46d5d)" style="fill:none;stroke:#5c3666;stroke-width:0.5;"/>
    <path clip-path="url(#p96d5a46d5d)" style="fill:none;stroke:#5c3666;stroke-width:0.5;"/>
    <path clip-path="url(#p96d5a46d5d)" style="fill:none;stroke:#5c3666;stroke-width:0.5;"/>
   </g>
   <g id="line2d_10">
    <defs>
     <path d="M 0 2 
L 0 -2 
" id="md3d05f74aa" style="stroke:#5c3666;stroke-width:0.5;"/>
    </defs>
    <g clip-path="url(#p96d5a46d5d)">
     <use style="fill:#5c3666;stroke:#5c3666;stroke-width:0.5;" x="184.667251" xlink:href="#md3d05f74aa" y="35.82"/>
     <use style="fill:#5c3666;stroke:#5c3666;stroke-width:0.5;" x="216.328383" xlink:href="#md3d05f74aa" y="35.82"/>
     <use style="fill:#5c3666;stroke:#5c3666;stroke-width:0.5;" x="236.736533" xlink:href="#md3d05f74aa" y="35.82"/>
     <use style="fill:#5c3666;stroke:#5c3666;stroke-width:0.5;" x="247.580997" xlink:href="#md3d05f74aa" y="35.82"/>
     <use style="fill:#5c3666;stroke:#5c3666;stroke-width:0.5;" x="259.188595" xlink:href="#md3d05f74aa" y="35.82"/>
     <use style="fill:#5c3666;stroke:#5c3666;stroke-width:0.5;" x="270.10416" xlink:href="#md3d05f74aa" y="35.82"/>
     <use style="fill:#5c3666;stroke:#5c3666;stroke-width:0.5;" x="277.766185" xlink:href="#md3d05f74aa" y="35.82"/>
     <use style="fill:#5c3666;stroke:#5c3666;stroke-width:0.5;" x="284.115734" xlink:href="#md3d05f74aa" y="35.82"/>
     <use style="fill:#5c3666;stroke:#5c3666;stroke-width:0.5;" x="290.507361" xlink:href="#md3d05f74aa" y="35.82"/>
     <use style="fill:#5c3666;stroke:#5c3666;stroke-width:0.5;" x="299.236366" xlink:href="#md3d05f74aa" y="35.82"/>
     <use style="fill:#5c3666;stroke:#5c3666;stroke-width:0.5;" x="307.992202" xlink:href="#md3d05f74aa" y="35.82"/>
     <use style="fill:#5c3666;stroke:#5c3666;stroke-width:0.5;" x="317.003147" xlink:href="#md3d05f74aa" y="35.82"/>
     <use style="fill:#5c3666;stroke:#5c3666;stroke-width:0.5;" x="329.054357" xlink:href="#md3d05f74aa" y="35.82"/>
     <use style="fill:#5c3666;stroke:#5c3666;stroke-width:0.5;" x="339.307544" xlink:href="#md3d05f74aa" y="35.82"/>
     <use style="fill:#5c3666;stroke:#5c3666;stroke-width:0.5;" x="349.234201" xlink:href="#md3d05f74aa" y="35.82"/>
     <use style="fill:#5c3666;stroke:#5c3666;stroke-width:0.5;" x="359.722338" xlink:href="#md3d05f74aa" y="35.82"/>
     <use style="fill:#5c3666;stroke:#5c3666;stroke-width:0.5;" x="371.472376" xlink:href="#md3d05f74aa" y="35.82"/>
     <use style="fill:#5c3666;stroke:#5c3666;stroke-width:0.5;" x="385.297749" xlink:href="#md3d05f74aa" y="35.82"/>
     <use style="fill:#5c3666;stroke:#5c3666;stroke-width:0.5;" x="400.217694" xlink:href="#md3d05f74aa" y="35.82"/>
     <use style="fill:#5c3666;stroke:#5c3666;stroke-width:0.5;" x="415.806718" xlink:href="#md3d05f74aa" y="35.82"/>
     <use style="fill:#5c3666;stroke:#5c3666;stroke-width:0.5;" x="425.859829" xlink:href="#md3d05f74aa" y="35.82"/>
     <use style="fill:#5c3666;stroke:#5c3666;stroke-width:0.5;" x="444.911954" xlink:href="#md3d05f74aa" y="35.82"/>
     <use style="fill:#5c3666;stroke:#5c3666;stroke-width:0.5;" x="459.71233" xlink:href="#md3d05f74aa" y="35.82"/>
     <use style="fill:#5c3666;stroke:#5c3666;stroke-width:0.5;" x="483.613411" xlink:href="#md3d05f74aa" y="35.82"/>
     <use style="fill:#5c3666;stroke:#5c3666;stroke-width:0.5;" x="484.381553" xlink:href="#md3d05f74aa" y="-1"/>
     <use style="fill:#5c3666;stroke:#5c3666;stroke-width:0.5;" x="529.565638" xlink:href="#md3d05f74aa" y="-1"/>
     <use style="fill:#5c3666;stroke:#5c3666;stroke-width:0.5;" x="530.381378" xlink:href="#md3d05f74aa" y="35.82"/>
     <use style="fill:#5c3666;stroke:#5c3666;stroke-width:0.5;" x="531.690959" xlink:href="#md3d05f74aa" y="-1"/>
     <use style="fill:#5c3666;stroke:#5c3666;stroke-width:0.5;" x="659.172902" xlink:href="#md3d05f74aa" y="-1"/>
     <use style="fill:#5c3666;stroke:#5c3666;stroke-width:0.5;" x="659.79421" xlink:href="#md3d05f74aa" y="35.82"/>
     <use style="fill:#5c3666;stroke:#5c3666;stroke-width:0.5;" x="660.376298" xlink:href="#md3d05f74aa" y="-1"/>
    </g>
   </g>
   <g id="line2d_11">
    <g clip-path="url(#p96d5a46d5d)">
     <use style="fill:#5c3666;stroke:#5c3666;stroke-width:0.5;" x="201.48374" xlink:href="#md3d05f74aa" y="35.82"/>
     <use style="fill:#5c3666;stroke:#5c3666;stroke-width:0.5;" x="228.709223" xlink:href="#md3d05f74aa" y="35.82"/>
     <use style="fill:#5c3666;stroke:#5c3666;stroke-width:0.5;" x="242.721173" xlink:href="#md3d05f74aa" y="35.82"/>
     <use style="fill:#5c3666;stroke:#5c3666;stroke-width:0.5;" x="255.037739" xlink:href="#md3d05f74aa" y="35.82"/>
     <use style="fill:#5c3666;stroke:#5c3666;stroke-width:0.5;" x="266.409636" xlink:href="#md3d05f74aa" y="35.82"/>
     <use style="fill:#5c3666;stroke:#5c3666;stroke-width:0.5;" x="275.060156" xlink:href="#md3d05f74aa" y="35.82"/>
     <use style="fill:#5c3666;stroke:#5c3666;stroke-width:0.5;" x="281.020007" xlink:href="#md3d05f74aa" y="35.82"/>
     <use style="fill:#5c3666;stroke:#5c3666;stroke-width:0.5;" x="287.7734" xlink:href="#md3d05f74aa" y="35.82"/>
     <use style="fill:#5c3666;stroke:#5c3666;stroke-width:0.5;" x="295.175498" xlink:href="#md3d05f74aa" y="35.82"/>
     <use style="fill:#5c3666;stroke:#5c3666;stroke-width:0.5;" x="305.489228" xlink:href="#md3d05f74aa" y="35.82"/>
     <use style="fill:#5c3666;stroke:#5c3666;stroke-width:0.5;" x="312.202746" xlink:href="#md3d05f74aa" y="35.82"/>
     <use style="fill:#5c3666;stroke:#5c3666;stroke-width:0.5;" x="324.72749" xlink:href="#md3d05f74aa" y="35.82"/>
     <use style="fill:#5c3666;stroke:#5c3666;stroke-width:0.5;" x="335.499636" xlink:href="#md3d05f74aa" y="35.82"/>
     <use style="fill:#5c3666;stroke:#5c3666;stroke-width:0.5;" x="347.0534" xlink:href="#md3d05f74aa" y="35.82"/>
     <use style="fill:#5c3666;stroke:#5c3666;stroke-width:0.5;" x="355.80675" xlink:href="#md3d05f74aa" y="35.82"/>
     <use style="fill:#5c3666;stroke:#5c3666;stroke-width:0.5;" x="365.945912" xlink:href="#md3d05f74aa" y="35.82"/>
     <use style="fill:#5c3666;stroke:#5c3666;stroke-width:0.5;" x="379.550419" xlink:href="#md3d05f74aa" y="35.82"/>
     <use style="fill:#5c3666;stroke:#5c3666;stroke-width:0.5;" x="394.606132" xlink:href="#md3d05f74aa" y="35.82"/>
     <use style="fill:#5c3666;stroke:#5c3666;stroke-width:0.5;" x="408.995059" xlink:href="#md3d05f74aa" y="35.82"/>
     <use style="fill:#5c3666;stroke:#5c3666;stroke-width:0.5;" x="422.001429" xlink:href="#md3d05f74aa" y="35.82"/>
     <use style="fill:#5c3666;stroke:#5c3666;stroke-width:0.5;" x="434.979245" xlink:href="#md3d05f74aa" y="35.82"/>
     <use style="fill:#5c3666;stroke:#5c3666;stroke-width:0.5;" x="454.908601" xlink:href="#md3d05f74aa" y="35.82"/>
     <use style="fill:#5c3666;stroke:#5c3666;stroke-width:0.5;" x="470.972418" xlink:href="#md3d05f74aa" y="35.82"/>
     <use style="fill:#5c3666;stroke:#5c3666;stroke-width:0.5;" x="496.146283" xlink:href="#md3d05f74aa" y="35.82"/>
     <use style="fill:#5c3666;stroke:#5c3666;stroke-width:0.5;" x="496.983676" xlink:href="#md3d05f74aa" y="-1"/>
     <use style="fill:#5c3666;stroke:#5c3666;stroke-width:0.5;" x="551.482009" xlink:href="#md3d05f74aa" y="-1"/>
     <use style="fill:#5c3666;stroke:#5c3666;stroke-width:0.5;" x="552.554999" xlink:href="#md3d05f74aa" y="35.82"/>
     <use style="fill:#5c3666;stroke:#5c3666;stroke-width:0.5;" x="553.844317" xlink:href="#md3d05f74aa" y="-1"/>
     <use style="fill:#5c3666;stroke:#5c3666;stroke-width:0.5;" x="684.480887" xlink:href="#md3d05f74aa" y="-1"/>
     <use style="fill:#5c3666;stroke:#5c3666;stroke-width:0.5;" x="685.064634" xlink:href="#md3d05f74aa" y="35.82"/>
     <use style="fill:#5c3666;stroke:#5c3666;stroke-width:0.5;" x="685.466606" xlink:href="#md3d05f74aa" y="-1"/>
    </g>
   </g>
   <g id="line2d_12"/>
   <g id="patch_3">
    <path d="M 72 63 
L 72 8.64 
" style="fill:none;stroke:#cccccc;stroke-linecap:square;stroke-linejoin:miter;stroke-width:1.25;"/>
   </g>
   <g id="patch_4">
    <path d="M 518.4 63 
L 518.4 8.64 
" style="fill:none;stroke:#cccccc;stroke-linecap:square;stroke-linejoin:miter;stroke-width:1.25;"/>
   </g>
   <g id="patch_5">
    <path d="M 72 63 
L 518.4 63 
" style="fill:none;stroke:#cccccc;stroke-linecap:square;stroke-linejoin:miter;stroke-width:1.25;"/>
   </g>
   <g id="patch_6">
    <path d="M 72 8.64 
L 518.4 8.64 
" style="fill:none;stroke:#cccccc;stroke-linecap:square;stroke-linejoin:miter;stroke-width:1.25;"/>
   </g>
   <g id="legend_1"/>
  </g>
 </g>
 <defs>
  <clipPath id="p96d5a46d5d">
   <rect height="54.36" width="446.4" x="72" y="8.64"/>
  </clipPath>
 </defs>
</svg>
